<?xml version="1.0" encoding="utf-8"?>
<!-- Generator: Adobe Illustrator 26.2.1, SVG Export Plug-In . SVG Version: 6.00 Build 0)  -->
<svg version="1.1"
	 id="Layer_1" xmlns:cc="http://creativecommons.org/ns#" xmlns:dc="http://purl.org/dc/elements/1.1/" xmlns:inkscape="http://www.inkscape.org/namespaces/inkscape" xmlns:rdf="http://www.w3.org/1999/02/22-rdf-syntax-ns#" xmlns:svg="http://www.w3.org/2000/svg"
	 xmlns="http://www.w3.org/2000/svg" xmlns:xlink="http://www.w3.org/1999/xlink" x="0px" y="0px" viewBox="0 0 1801.9 672"
	 style="enable-background:new 0 0 1801.9 672;" xml:space="preserve">
<style type="text/css">
	.st0{fill:none;stroke:#000000;stroke-width:0.5669;stroke-linecap:round;stroke-linejoin:round;stroke-miterlimit:11.3386;}
	.st1{font-family:'Helvetica';}
	.st2{font-size:28.3465px;}
	.st3{enable-background:new    ;}
	.st4{fill:none;stroke:#000000;stroke-miterlimit:10;}
</style>
<g id="p-0">
	<path class="st0" d="M28.6,643.6h283.5v-28.3H28.6V643.6z"/>
	<text transform="matrix(1 0 0 1 123.1016 615.2592)" class="st1 st2">100mm</text>
</g>
<g id="p-1">
	<path class="st0" d="M37.1,601.9H51c0.3,0,0-0.3,0,0v8.2c0,0.2,0.1,0.3,0.3,0.3h17c0.2,0,0.3-0.1,0.3-0.3v-8.2c0-0.3-0.3,0,0,0H85
		c0.3,0,0-0.3,0,0v8.2c0,0.2,0.1,0.3,0.3,0.3h17c0.2,0,0.3-0.1,0.3-0.3v-8.2c0-0.3-0.3,0,0,0H119c0.3,0,0-0.3,0,0v8.2
		c0,0.2,0.1,0.3,0.3,0.3h17c0.2,0,0.3-0.1,0.3-0.3v-8.2c0-0.3-0.3,0,0,0H153c0.3,0,0-0.3,0,0v8.2c0,0.2,0.1,0.3,0.3,0.3h17
		c0.2,0,0.3-0.1,0.3-0.3v-8.2c0-0.3-0.3,0,0,0H187c0.3,0,0-0.3,0,0v8.2c0,0.2,0.1,0.3,0.3,0.3h17c0.2,0,0.3-0.1,0.3-0.3v-8.2
		c0-0.3-0.3,0,0,0H221c0.3,0,0-0.3,0,0v8.2c0,0.2,0.1,0.3,0.3,0.3h17c0.2,0,0.3-0.1,0.3-0.3v-8.2c0-0.3-0.3,0,0,0H255
		c0.3,0,0-0.3,0,0v8.2c0,0.2,0.1,0.3,0.3,0.3h17c0.2,0,0.3-0.1,0.3-0.3v-8.2c0-0.3-0.3,0,0,0H289c0.3,0,0-0.3,0,0v8.2
		c0,0.2,0.1,0.3,0.3,0.3h17c0.2,0,0.3-0.1,0.3-0.3v-8.2c0-0.3-0.3,0,0,0h13.9c0.2,0,0.3-0.1,0.3-0.3v-16.7c0-0.3-0.3,0,0,0h8.2
		c0.2,0,0.3-0.1,0.3-0.3v-17c0-0.2-0.1-0.3-0.3-0.3h-8.2c-0.3,0,0,0.3,0,0v-16.4c0-0.3-0.3,0,0,0h8.2c0.2,0,0.3-0.1,0.3-0.3v-17
		c0-0.2-0.1-0.3-0.3-0.3h-8.2c-0.3,0,0,0.3,0,0v-16.7c0-0.1,0-0.1-0.1-0.2l-12-14.3c-0.2-0.2-0.2,0.2,0,0l6.3-5.3
		c0.1-0.1,0.1-0.3,0-0.4l-10.9-13c-0.1-0.1-0.3-0.1-0.4,0l-6.3,5.3c-0.2,0.2,0.2,0.2,0,0l-10.6-12.6c-0.2-0.2-0.2,0.2,0,0l6.3-5.3
		c0.1-0.1,0.1-0.3,0-0.4l-10.9-13c-0.1-0.1-0.3-0.1-0.4,0l-6.3,5.3c-0.2,0.2,0.2,0.2,0,0L265.1,450c-0.2-0.2-0.2,0.2,0,0l6.3-5.3
		c0.1-0.1,0.1-0.3,0-0.4l-10.9-13c-0.1-0.1-0.3-0.1-0.4,0l-6.3,5.3c-0.2,0.2,0.2,0.2,0,0L243.2,424c-0.2-0.2-0.2,0.2,0,0l6.3-5.3
		c0.1-0.1,0.1-0.3,0-0.4l-10.9-13c-0.1-0.1-0.3-0.1-0.4,0l-6.3,5.3c-0.2,0.2,0.2,0.2,0,0L221.3,398c-0.2-0.2-0.2,0.2,0,0l6.3-5.3
		c0.1-0.1,0.1-0.3,0-0.4l-10.9-13c-0.1-0.1-0.3-0.1-0.4,0l-6.3,5.3c-0.2,0.2,0.2,0.2,0,0L199.4,372c-0.2-0.2-0.2,0.2,0,0l6.3-5.3
		c0.1-0.1,0.1-0.3,0-0.4l-10.9-13c-0.1-0.1-0.3-0.1-0.4,0l-6.3,5.3c-0.2,0.2,0.2,0.2,0,0L177.5,346c-0.2-0.2-0.2,0.2,0,0l6.3-5.3
		c0.1-0.1,0.1-0.3,0-0.4l-10.9-13c-0.1-0.1-0.3-0.1-0.4,0l-6.3,5.3c-0.2,0.2,0.2,0.2,0,0l-12-14.3c-0.1-0.1-0.1-0.1-0.2-0.1h-15.7
		c-0.3,0,0,0.3,0,0V310c0-0.2-0.1-0.3-0.3-0.3h-17c-0.2,0-0.3,0.1-0.3,0.3v8.2c0,0.3,0.3,0,0,0h-16.4c-0.3,0,0,0.3,0,0V310
		c0-0.2-0.1-0.3-0.3-0.3H87c-0.2,0-0.3,0.1-0.3,0.3v8.2c0,0.3,0.3,0,0,0H70.4c-0.3,0,0,0.3,0,0V310c0-0.2-0.1-0.3-0.3-0.3h-17
		c-0.2,0-0.3,0.1-0.3,0.3v8.2c0,0.3,0.3,0,0,0H37.1c-0.2,0-0.3,0.1-0.3,0.3v13.9c0,0.3,0.3,0,0,0h-8.2c-0.2,0-0.3,0.1-0.3,0.3v17
		c0,0.2,0.1,0.3,0.3,0.3h8.2c0.3,0,0-0.3,0,0v16.4c0,0.3,0.3,0,0,0h-8.2c-0.2,0-0.3,0.1-0.3,0.3v17c0,0.2,0.1,0.3,0.3,0.3h8.2
		c0.3,0,0-0.3,0,0v16.4c0,0.3,0.3,0,0,0h-8.2c-0.2,0-0.3,0.1-0.3,0.3v17c0,0.2,0.1,0.3,0.3,0.3h8.2c0.3,0,0-0.3,0,0v16.4
		c0,0.3,0.3,0,0,0h-8.2c-0.2,0-0.3,0.1-0.3,0.3v17c0,0.2,0.1,0.3,0.3,0.3h8.2c0.3,0,0-0.3,0,0v16.4c0,0.3,0.3,0,0,0h-8.2
		c-0.2,0-0.3,0.1-0.3,0.3v17c0,0.2,0.1,0.3,0.3,0.3h8.2c0.3,0,0-0.3,0,0v16.4c0,0.3,0.3,0,0,0h-8.2c-0.2,0-0.3,0.1-0.3,0.3v17
		c0,0.2,0.1,0.3,0.3,0.3h8.2c0.3,0,0-0.3,0,0v16.4c0,0.3,0.3,0,0,0h-8.2c-0.2,0-0.3,0.1-0.3,0.3v17c0,0.2,0.1,0.3,0.3,0.3h8.2
		c0.3,0,0-0.3,0,0v16.4c0,0.3,0.3,0,0,0h-8.2c-0.2,0-0.3,0.1-0.3,0.3v17c0,0.2,0.1,0.3,0.3,0.3h8.2c0.3,0,0-0.3,0,0v13.9
		C36.9,601.8,37,601.9,37.1,601.9z"/>
</g>
<g id="p-2">
	<path class="st0" d="M342.4,601.9h13.9c0.3,0,0-0.3,0,0v8.2c0,0.2,0.1,0.3,0.3,0.3h17c0.2,0,0.3-0.1,0.3-0.3v-8.2c0-0.3-0.3,0,0,0
		h16.4c0.3,0,0-0.3,0,0v8.2c0,0.2,0.1,0.3,0.3,0.3h17c0.2,0,0.3-0.1,0.3-0.3v-8.2c0-0.3-0.3,0,0,0h16.4c0.3,0,0-0.3,0,0v8.2
		c0,0.2,0.1,0.3,0.3,0.3h17c0.2,0,0.3-0.1,0.3-0.3v-8.2c0-0.3-0.3,0,0,0h16.4c0.3,0,0-0.3,0,0v8.2c0,0.2,0.1,0.3,0.3,0.3h17
		c0.2,0,0.3-0.1,0.3-0.3v-8.2c0-0.3-0.3,0,0,0h16.4c0.3,0,0-0.3,0,0v8.2c0,0.2,0.1,0.3,0.3,0.3h17c0.2,0,0.3-0.1,0.3-0.3v-8.2
		c0-0.3-0.3,0,0,0h16.4c0.3,0,0-0.3,0,0v8.2c0,0.2,0.1,0.3,0.3,0.3h17c0.2,0,0.3-0.1,0.3-0.3v-8.2c0-0.3-0.3,0,0,0h16.4
		c0.3,0,0-0.3,0,0v8.2c0,0.2,0.1,0.3,0.3,0.3h17c0.2,0,0.3-0.1,0.3-0.3v-8.2c0-0.3-0.3,0,0,0h16.4c0.3,0,0-0.3,0,0v8.2
		c0,0.2,0.1,0.3,0.3,0.3h17c0.2,0,0.3-0.1,0.3-0.3v-8.2c0-0.3-0.3,0,0,0h13.9c0.2,0,0.3-0.1,0.3-0.3v-16.7c0-0.3-0.3,0,0,0h8.2
		c0.2,0,0.3-0.1,0.3-0.3v-17c0-0.2-0.1-0.3-0.3-0.3h-8.2c-0.3,0,0,0.3,0,0v-16.4c0-0.3-0.3,0,0,0h8.2c0.2,0,0.3-0.1,0.3-0.3v-17
		c0-0.2-0.1-0.3-0.3-0.3h-8.2c-0.3,0,0,0.3,0,0v-16.7c0-0.1,0-0.1-0.1-0.2l-12-14.3c-0.2-0.2-0.2,0.2,0,0l6.3-5.3
		c0.1-0.1,0.1-0.3,0-0.4l-10.9-13c-0.1-0.1-0.3-0.1-0.4,0l-6.3,5.3c-0.2,0.2,0.2,0.2,0,0l-10.6-12.6c-0.2-0.2-0.2,0.2,0,0l6.3-5.3
		c0.1-0.1,0.1-0.3,0-0.4l-10.9-13c-0.1-0.1-0.3-0.1-0.4,0l-6.3,5.3c-0.2,0.2,0.2,0.2,0,0L570.4,450c-0.2-0.2-0.2,0.2,0,0l6.3-5.3
		c0.1-0.1,0.1-0.3,0-0.4l-10.9-13c-0.1-0.1-0.3-0.1-0.4,0l-6.3,5.3c-0.2,0.2,0.2,0.2,0,0L548.5,424c-0.2-0.2-0.2,0.2,0,0l6.3-5.3
		c0.1-0.1,0.1-0.3,0-0.4l-10.9-13c-0.1-0.1-0.3-0.1-0.4,0l-6.3,5.3c-0.2,0.2,0.2,0.2,0,0L526.6,398c-0.2-0.2-0.2,0.2,0,0l6.3-5.3
		c0.1-0.1,0.1-0.3,0-0.4l-10.9-13c-0.1-0.1-0.3-0.1-0.4,0l-6.3,5.3c-0.2,0.2,0.2,0.2,0,0L504.7,372c-0.2-0.2-0.2,0.2,0,0l6.3-5.3
		c0.1-0.1,0.1-0.3,0-0.4l-10.9-13c-0.1-0.1-0.3-0.1-0.4,0l-6.3,5.3c-0.2,0.2,0.2,0.2,0,0L482.8,346c-0.2-0.2-0.2,0.2,0,0l6.3-5.3
		c0.1-0.1,0.1-0.3,0-0.4l-10.9-13c-0.1-0.1-0.3-0.1-0.4,0l-6.3,5.3c-0.2,0.2,0.2,0.2,0,0l-12-14.3c-0.1-0.1-0.1-0.1-0.2-0.1h-15.7
		c-0.3,0,0,0.3,0,0V310c0-0.2-0.1-0.3-0.3-0.3h-17c-0.2,0-0.3,0.1-0.3,0.3v8.2c0,0.3,0.3,0,0,0h-16.4c-0.3,0,0,0.3,0,0V310
		c0-0.2-0.1-0.3-0.3-0.3h-17c-0.2,0-0.3,0.1-0.3,0.3v8.2c0,0.3,0.3,0,0,0h-16.4c-0.3,0,0,0.3,0,0V310c0-0.2-0.1-0.3-0.3-0.3h-17
		c-0.2,0-0.3,0.1-0.3,0.3v8.2c0,0.3,0.3,0,0,0h-15.7c-0.2,0-0.3,0.1-0.3,0.3v13.9c0,0.3,0.3,0,0,0h-8.2c-0.2,0-0.3,0.1-0.3,0.3v17
		c0,0.2,0.1,0.3,0.3,0.3h8.2c0.3,0,0-0.3,0,0v16.4c0,0.3,0.3,0,0,0h-8.2c-0.2,0-0.3,0.1-0.3,0.3v17c0,0.2,0.1,0.3,0.3,0.3h8.2
		c0.3,0,0-0.3,0,0v16.4c0,0.3,0.3,0,0,0h-8.2c-0.2,0-0.3,0.1-0.3,0.3v17c0,0.2,0.1,0.3,0.3,0.3h8.2c0.3,0,0-0.3,0,0v16.4
		c0,0.3,0.3,0,0,0h-8.2c-0.2,0-0.3,0.1-0.3,0.3v17c0,0.2,0.1,0.3,0.3,0.3h8.2c0.3,0,0-0.3,0,0v16.4c0,0.3,0.3,0,0,0h-8.2
		c-0.2,0-0.3,0.1-0.3,0.3v17c0,0.2,0.1,0.3,0.3,0.3h8.2c0.3,0,0-0.3,0,0v16.4c0,0.3,0.3,0,0,0h-8.2c-0.2,0-0.3,0.1-0.3,0.3v17
		c0,0.2,0.1,0.3,0.3,0.3h8.2c0.3,0,0-0.3,0,0v16.4c0,0.3,0.3,0,0,0h-8.2c-0.2,0-0.3,0.1-0.3,0.3v17c0,0.2,0.1,0.3,0.3,0.3h8.2
		c0.3,0,0-0.3,0,0v16.4c0,0.3,0.3,0,0,0h-8.2c-0.2,0-0.3,0.1-0.3,0.3v17c0,0.2,0.1,0.3,0.3,0.3h8.2c0.3,0,0-0.3,0,0v13.9
		C342.1,601.8,342.3,601.9,342.4,601.9z"/>
</g>
<g id="p-3">
	<path class="st0" d="M650.1,612.9h14.2c0.2,0,0.3-0.1,0.3-0.3v-8.2c0-0.3-0.3,0,0,0H681c0.3,0,0-0.3,0,0v8.2c0,0.2,0.1,0.3,0.3,0.3
		h17c0.2,0,0.3-0.1,0.3-0.3v-8.2c0-0.3-0.3,0,0,0H715c0.3,0,0-0.3,0,0v8.2c0,0.2,0.1,0.3,0.3,0.3h17c0.2,0,0.3-0.1,0.3-0.3v-8.2
		c0-0.3-0.3,0,0,0H749c0.3,0,0-0.3,0,0v8.2c0,0.2,0.1,0.3,0.3,0.3h17c0.2,0,0.3-0.1,0.3-0.3v-8.2c0-0.3-0.3,0,0,0H783
		c0.3,0,0-0.3,0,0v8.2c0,0.2,0.1,0.3,0.3,0.3h17c0.2,0,0.3-0.1,0.3-0.3v-8.2c0-0.3-0.3,0,0,0H817c0.3,0,0-0.3,0,0v8.2
		c0,0.2,0.1,0.3,0.3,0.3h17c0.2,0,0.3-0.1,0.3-0.3v-8.2c0-0.3-0.3,0,0,0H851c0.3,0,0-0.3,0,0v8.2c0,0.2,0.1,0.3,0.3,0.3h17
		c0.2,0,0.3-0.1,0.3-0.3v-8.2c0-0.3-0.3,0,0,0H885c0.3,0,0-0.3,0,0v8.2c0,0.2,0.1,0.3,0.3,0.3h17c0.2,0,0.3-0.1,0.3-0.3v-8.2
		c0-0.3-0.3,0,0,0H919c0.3,0,0-0.3,0,0v8.2c0,0.2,0.1,0.3,0.3,0.3h14.2h8.5c0.2,0,0.3-0.1,0.3-0.3v-8.5v-19.8c0-0.2-0.1-0.3-0.3-0.3
		h-8.2c-0.3,0,0,0.3,0,0v-16.4c0-0.3-0.3,0,0,0h8.2c0.2,0,0.3-0.1,0.3-0.3v-17c0-0.2-0.1-0.3-0.3-0.3h-8.2c-0.3,0,0,0.3,0,0v-16.4
		c0-0.3-0.3,0,0,0h8.2c0.2,0,0.3-0.1,0.3-0.3v-17c0-0.2-0.1-0.3-0.3-0.3h-8.2c-0.3,0,0,0.3,0,0v-16.4c0-0.3-0.3,0,0,0h8.2
		c0.2,0,0.3-0.1,0.3-0.3v-17c0-0.2-0.1-0.3-0.3-0.3h-8.2c-0.3,0,0,0.3,0,0v-16.4c0-0.3-0.3,0,0,0h8.2c0.2,0,0.3-0.1,0.3-0.3v-17
		c0-0.2-0.1-0.3-0.3-0.3h-8.2c-0.3,0,0,0.3,0,0v-16.4c0-0.3-0.3,0,0,0h8.2c0.2,0,0.3-0.1,0.3-0.3v-17c0-0.2-0.1-0.3-0.3-0.3h-8.2
		c-0.3,0,0,0.3,0,0v-16.4c0-0.3-0.3,0,0,0h8.2c0.2,0,0.3-0.1,0.3-0.3v-17c0-0.2-0.1-0.3-0.3-0.3h-8.2c-0.3,0,0,0.3,0,0v-16.4
		c0-0.3-0.3,0,0,0h8.2c0.2,0,0.3-0.1,0.3-0.3v-17c0-0.2-0.1-0.3-0.3-0.3h-8.2c-0.3,0,0,0.3,0,0v-16.4c0-0.3-0.3,0,0,0h8.2
		c0.2,0,0.3-0.1,0.3-0.3v-17c0-0.2-0.1-0.3-0.3-0.3h-8.2c-0.3,0,0,0.3,0,0v-16.4c0-0.3-0.3,0,0,0h8.2c0.2,0,0.3-0.1,0.3-0.3v-17
		c0-0.2-0.1-0.3-0.3-0.3h-8.2c-0.3,0,0,0.3,0,0v-16.4c0-0.3-0.3,0,0,0h8.2c0.2,0,0.3-0.1,0.3-0.3v-17c0-0.2-0.1-0.3-0.3-0.3h-8.2
		c-0.3,0,0,0.3,0,0v-16.4c0-0.3-0.3,0,0,0h8.2c0.2,0,0.3-0.1,0.3-0.3v-17c0-0.2-0.1-0.3-0.3-0.3h-8.2c-0.3,0,0,0.3,0,0v-16.4
		c0-0.3-0.3,0,0,0h8.2c0.2,0,0.3-0.1,0.3-0.3v-17c0-0.2-0.1-0.3-0.3-0.3h-8.2c-0.3,0,0,0.3,0,0v-16.4c0-0.3-0.3,0,0,0h8.2
		c0.2,0,0.3-0.1,0.3-0.3v-17c0-0.2-0.1-0.3-0.3-0.3h-8.2c-0.3,0,0,0.3,0,0v-16.4c0-0.3-0.3,0,0,0h8.2c0.2,0,0.3-0.1,0.3-0.3v-17
		c0-0.2-0.1-0.3-0.3-0.3h-8.2c-0.3,0,0,0.3,0,0V91.3c0-0.3-0.3,0,0,0h8.2c0.2,0,0.3-0.1,0.3-0.3V74c0-0.2-0.1-0.3-0.3-0.3h-8.2
		c-0.3,0,0,0.3,0,0V57.3c0-0.3-0.3,0,0,0h8.2c0.2,0,0.3-0.1,0.3-0.3V37.1v-8.5c0-0.2-0.1-0.3-0.3-0.3h-8.5h-14.2
		c-0.2,0-0.3,0.1-0.3,0.3v8.2c0,0.3,0.3,0,0,0h-16.4c-0.3,0,0,0.3,0,0v-8.2c0-0.2-0.1-0.3-0.3-0.3h-17c-0.2,0-0.3,0.1-0.3,0.3v8.2
		c0,0.3,0.3,0,0,0h-16.4c-0.3,0,0,0.3,0,0v-8.2c0-0.2-0.1-0.3-0.3-0.3h-17c-0.2,0-0.3,0.1-0.3,0.3v8.2c0,0.3,0.3,0,0,0h-16.4
		c-0.3,0,0,0.3,0,0v-8.2c0-0.2-0.1-0.3-0.3-0.3h-17c-0.2,0-0.3,0.1-0.3,0.3v8.2c0,0.3,0.3,0,0,0h-16.4c-0.3,0,0,0.3,0,0v-8.2
		c0-0.2-0.1-0.3-0.3-0.3h-17c-0.2,0-0.3,0.1-0.3,0.3v8.2c0,0.3,0.3,0,0,0h-16.4c-0.3,0,0,0.3,0,0v-8.2c0-0.2-0.1-0.3-0.3-0.3h-17
		c-0.2,0-0.3,0.1-0.3,0.3v8.2c0,0.3,0.3,0,0,0h-16.4c-0.3,0,0,0.3,0,0v-8.2c0-0.2-0.1-0.3-0.3-0.3h-17c-0.2,0-0.3,0.1-0.3,0.3v8.2
		c0,0.3,0.3,0,0,0h-16.4c-0.3,0,0,0.3,0,0v-8.2c0-0.2-0.1-0.3-0.3-0.3h-17c-0.2,0-0.3,0.1-0.3,0.3v8.2c0,0.3,0.3,0,0,0h-16.4
		c-0.3,0,0,0.3,0,0v-8.2c0-0.2-0.1-0.3-0.3-0.3h-14.2h-8.5c-0.2,0-0.3,0.1-0.3,0.3v8.5V57c0,0.2,0.1,0.3,0.3,0.3h8.2
		c0.3,0,0-0.3,0,0v16.4c0,0.3,0.3,0,0,0h-8.2c-0.2,0-0.3,0.1-0.3,0.3v17c0,0.2,0.1,0.3,0.3,0.3h8.2c0.3,0,0-0.3,0,0v16.4
		c0,0.3,0.3,0,0,0h-8.2c-0.2,0-0.3,0.1-0.3,0.3v17c0,0.2,0.1,0.3,0.3,0.3h8.2c0.3,0,0-0.3,0,0v16.4c0,0.3,0.3,0,0,0h-8.2
		c-0.2,0-0.3,0.1-0.3,0.3v17c0,0.2,0.1,0.3,0.3,0.3h8.2c0.3,0,0-0.3,0,0v16.4c0,0.3,0.3,0,0,0h-8.2c-0.2,0-0.3,0.1-0.3,0.3v17
		c0,0.2,0.1,0.3,0.3,0.3h8.2c0.3,0,0-0.3,0,0v16.4c0,0.3,0.3,0,0,0h-8.2c-0.2,0-0.3,0.1-0.3,0.3v17c0,0.2,0.1,0.3,0.3,0.3h8.2
		c0.3,0,0-0.3,0,0v16.4c0,0.3,0.3,0,0,0h-8.2c-0.2,0-0.3,0.1-0.3,0.3v17c0,0.2,0.1,0.3,0.3,0.3h8.2c0.3,0,0-0.3,0,0v16.4
		c0,0.3,0.3,0,0,0h-8.2c-0.2,0-0.3,0.1-0.3,0.3v17c0,0.2,0.1,0.3,0.3,0.3h8.2c0.3,0,0-0.3,0,0v16.4c0,0.3,0.3,0,0,0h-8.2
		c-0.2,0-0.3,0.1-0.3,0.3v17c0,0.2,0.1,0.3,0.3,0.3h8.2c0.3,0,0-0.3,0,0v16.4c0,0.3,0.3,0,0,0h-8.2c-0.2,0-0.3,0.1-0.3,0.3v17
		c0,0.2,0.1,0.3,0.3,0.3h8.2c0.3,0,0-0.3,0,0v16.4c0,0.3,0.3,0,0,0h-8.2c-0.2,0-0.3,0.1-0.3,0.3v17c0,0.2,0.1,0.3,0.3,0.3h8.2
		c0.3,0,0-0.3,0,0v16.4c0,0.3,0.3,0,0,0h-8.2c-0.2,0-0.3,0.1-0.3,0.3v17c0,0.2,0.1,0.3,0.3,0.3h8.2c0.3,0,0-0.3,0,0v16.4
		c0,0.3,0.3,0,0,0h-8.2c-0.2,0-0.3,0.1-0.3,0.3v17c0,0.2,0.1,0.3,0.3,0.3h8.2c0.3,0,0-0.3,0,0v16.4c0,0.3,0.3,0,0,0h-8.2
		c-0.2,0-0.3,0.1-0.3,0.3v17c0,0.2,0.1,0.3,0.3,0.3h8.2c0.3,0,0-0.3,0,0v16.4c0,0.3,0.3,0,0,0h-8.2c-0.2,0-0.3,0.1-0.3,0.3v17
		c0,0.2,0.1,0.3,0.3,0.3h8.2c0.3,0,0-0.3,0,0v16.4c0,0.3,0.3,0,0,0h-8.2c-0.2,0-0.3,0.1-0.3,0.3v17c0,0.2,0.1,0.3,0.3,0.3h8.2
		c0.3,0,0-0.3,0,0v16.4c0,0.3,0.3,0,0,0h-8.2c-0.2,0-0.3,0.1-0.3,0.3v19.8v8.5c0,0.2,0.1,0.3,0.3,0.3h8.5V612.9z"/>
	<path class="st0" d="M960.2,612.9h17c0.2,0,0.3-0.1,0.3-0.3v-8.2c0-0.3-0.3,0,0,0H994c0.3,0,0-0.3,0,0v8.2c0,0.2,0.1,0.3,0.3,0.3
		h17c0.2,0,0.3-0.1,0.3-0.3v-8.2c0-0.3-0.3,0,0,0h16.4c0.3,0,0-0.3,0,0v8.2c0,0.2,0.1,0.3,0.3,0.3h17h-2.4c0.2,0,0.3-0.1,0.3-0.3
		v-8.5v-19.6c0-0.3-0.3,0,0,0h5.2c0.2,0,0.3-0.1,0.3-0.3v-17c0-0.2-0.1-0.3-0.3-0.3h-5.2c-0.3,0,0,0.3,0,0v-16.4c0-0.3-0.3,0,0,0
		h5.2c0.2,0,0.3-0.1,0.3-0.3v-17c0-0.2-0.1-0.3-0.3-0.3h-5.2c-0.3,0,0,0.3,0,0v-16.4c0-0.3-0.3,0,0,0h5.2c0.2,0,0.3-0.1,0.3-0.3v-17
		c0-0.2-0.1-0.3-0.3-0.3h-5.2c-0.3,0,0,0.3,0,0v-16.4c0-0.3-0.3,0,0,0h5.2c0.2,0,0.3-0.1,0.3-0.3v-17c0-0.2-0.1-0.3-0.3-0.3h-5.2
		c-0.3,0,0,0.3,0,0v-16.4c0-0.3-0.3,0,0,0h5.2c0.2,0,0.3-0.1,0.3-0.3v-17c0-0.2-0.1-0.3-0.3-0.3h-5.2c-0.3,0,0,0.3,0,0v-16.4
		c0-0.3-0.3,0,0,0h5.2c0.2,0,0.3-0.1,0.3-0.3v-17c0-0.2-0.1-0.3-0.3-0.3h-5.2c-0.3,0,0,0.3,0,0v-16.4c0-0.3-0.3,0,0,0h5.2
		c0.2,0,0.3-0.1,0.3-0.3v-17c0-0.2-0.1-0.3-0.3-0.3h-5.2c-0.3,0,0,0.3,0,0v-16.4c0-0.3-0.3,0,0,0h5.2c0.2,0,0.3-0.1,0.3-0.3v-17
		c0-0.2-0.1-0.3-0.3-0.3h-5.2c-0.3,0,0,0.3,0,0v-16.4c0-0.3-0.3,0,0,0h5.2c0.2,0,0.3-0.1,0.3-0.3v-17c0-0.2-0.1-0.3-0.3-0.3h-5.2
		c-0.3,0,0,0.3,0,0v-16.4c0-0.3-0.3,0,0,0h5.2c0.2,0,0.3-0.1,0.3-0.3v-17c0-0.2-0.1-0.3-0.3-0.3h-5.2c-0.3,0,0,0.3,0,0v-16.4
		c0-0.3-0.3,0,0,0h5.2c0.2,0,0.3-0.1,0.3-0.3v-17c0-0.2-0.1-0.3-0.3-0.3h-5.2c-0.3,0,0,0.3,0,0v-16.4c0-0.3-0.3,0,0,0h5.2
		c0.2,0,0.3-0.1,0.3-0.3v-17c0-0.2-0.1-0.3-0.3-0.3h-5.2c-0.3,0,0,0.3,0,0v-16.4c0-0.3-0.3,0,0,0h5.2c0.2,0,0.3-0.1,0.3-0.3v-17
		c0-0.2-0.1-0.3-0.3-0.3h-5.2c-0.3,0,0,0.3,0,0v-16.4c0-0.3-0.3,0,0,0h5.2c0.2,0,0.3-0.1,0.3-0.3v-17c0-0.2-0.1-0.3-0.3-0.3h-5.2
		c-0.3,0,0,0.3,0,0v-16.4c0-0.3-0.3,0,0,0h5.2c0.2,0,0.3-0.1,0.3-0.3V91c0-0.2-0.1-0.3-0.3-0.3h-5.2c-0.3,0,0,0.3,0,0V74.3
		c0-0.3-0.3,0,0,0h5.2c0.2,0,0.3-0.1,0.3-0.3V57c0-0.2-0.1-0.3-0.3-0.3h-5.2c-0.3,0,0,0.3,0,0V37.1v-8.5c0-0.2-0.1-0.3-0.3-0.3h2.4
		h-17c-0.2,0-0.3,0.1-0.3,0.3v8.2c0,0.3,0.3,0,0,0h-16.4c-0.3,0,0,0.3,0,0v-8.2c0-0.2-0.1-0.3-0.3-0.3h-17c-0.2,0-0.3,0.1-0.3,0.3
		v8.2c0,0.3,0.3,0,0,0h-16.4c-0.3,0,0,0.3,0,0v-8.2c0-0.2-0.1-0.3-0.3-0.3h-17c-0.2,0-0.3,0.1-0.3,0.3v8.5v19.6c0,0.3,0.3,0,0,0
		h-8.2c-0.2,0-0.3,0.1-0.3,0.3v17c0,0.2,0.1,0.3,0.3,0.3h8.2c0.3,0,0-0.3,0,0v16.4c0,0.3,0.3,0,0,0h-8.2c-0.2,0-0.3,0.1-0.3,0.3v17
		c0,0.2,0.1,0.3,0.3,0.3h8.2c0.3,0,0-0.3,0,0v16.4c0,0.3,0.3,0,0,0h-8.2c-0.2,0-0.3,0.1-0.3,0.3v17c0,0.2,0.1,0.3,0.3,0.3h8.2
		c0.3,0,0-0.3,0,0v16.4c0,0.3,0.3,0,0,0h-8.2c-0.2,0-0.3,0.1-0.3,0.3v17c0,0.2,0.1,0.3,0.3,0.3h8.2c0.3,0,0-0.3,0,0v16.4
		c0,0.3,0.3,0,0,0h-8.2c-0.2,0-0.3,0.1-0.3,0.3v17c0,0.2,0.1,0.3,0.3,0.3h8.2c0.3,0,0-0.3,0,0v16.4c0,0.3,0.3,0,0,0h-8.2
		c-0.2,0-0.3,0.1-0.3,0.3v17c0,0.2,0.1,0.3,0.3,0.3h8.2c0.3,0,0-0.3,0,0v16.4c0,0.3,0.3,0,0,0h-8.2c-0.2,0-0.3,0.1-0.3,0.3v17
		c0,0.2,0.1,0.3,0.3,0.3h8.2c0.3,0,0-0.3,0,0v16.4c0,0.3,0.3,0,0,0h-8.2c-0.2,0-0.3,0.1-0.3,0.3v17c0,0.2,0.1,0.3,0.3,0.3h8.2
		c0.3,0,0-0.3,0,0v16.4c0,0.3,0.3,0,0,0h-8.2c-0.2,0-0.3,0.1-0.3,0.3v17c0,0.2,0.1,0.3,0.3,0.3h8.2c0.3,0,0-0.3,0,0v16.4
		c0,0.3,0.3,0,0,0h-8.2c-0.2,0-0.3,0.1-0.3,0.3v17c0,0.2,0.1,0.3,0.3,0.3h8.2c0.3,0,0-0.3,0,0v16.4c0,0.3,0.3,0,0,0h-8.2
		c-0.2,0-0.3,0.1-0.3,0.3v17c0,0.2,0.1,0.3,0.3,0.3h8.2c0.3,0,0-0.3,0,0v16.4c0,0.3,0.3,0,0,0h-8.2c-0.2,0-0.3,0.1-0.3,0.3v17
		c0,0.2,0.1,0.3,0.3,0.3h8.2c0.3,0,0-0.3,0,0v16.4c0,0.3,0.3,0,0,0h-8.2c-0.2,0-0.3,0.1-0.3,0.3v17c0,0.2,0.1,0.3,0.3,0.3h8.2
		c0.3,0,0-0.3,0,0v16.4c0,0.3,0.3,0,0,0h-8.2c-0.2,0-0.3,0.1-0.3,0.3v17c0,0.2,0.1,0.3,0.3,0.3h8.2c0.3,0,0-0.3,0,0v16.4
		c0,0.3,0.3,0,0,0h-8.2c-0.2,0-0.3,0.1-0.3,0.3v17c0,0.2,0.1,0.3,0.3,0.3h8.2c0.3,0,0-0.3,0,0v16.4c0,0.3,0.3,0,0,0h-8.2
		c-0.2,0-0.3,0.1-0.3,0.3v17c0,0.2,0.1,0.3,0.3,0.3h8.2c0.3,0,0-0.3,0,0v19.6v8.5C960,612.7,960.1,612.9,960.2,612.9z"/>
	<path class="st0" d="M1066.5,612.9h19c0.2,0,0.3-0.1,0.3-0.3v-8.2c0-0.3-0.3,0,0,0h16.4c0.3,0,0-0.3,0,0v8.2c0,0.2,0.1,0.3,0.3,0.3
		h17c0.2,0,0.3-0.1,0.3-0.3v-8.2c0-0.3-0.3,0,0,0h16.4c0.3,0,0-0.3,0,0v8.2c0,0.2,0.1,0.3,0.3,0.3h17c0.2,0,0.3-0.1,0.3-0.3v-8.2
		c0-0.3-0.3,0,0,0h16.4c0.3,0,0-0.3,0,0v8.2c0,0.2,0.1,0.3,0.3,0.3h17c0.2,0,0.3-0.1,0.3-0.3v-8.2c0-0.3-0.3,0,0,0h16.4
		c0.3,0,0-0.3,0,0v8.2c0,0.2,0.1,0.3,0.3,0.3h17c0.2,0,0.3-0.1,0.3-0.3v-8.2c0-0.3-0.3,0,0,0h16.4c0.3,0,0-0.3,0,0v8.2
		c0,0.2,0.1,0.3,0.3,0.3h17c0.2,0,0.3-0.1,0.3-0.3v-8.2c0-0.3-0.3,0,0,0h16.4c0.3,0,0-0.3,0,0v8.2c0,0.2,0.1,0.3,0.3,0.3h17
		c0.2,0,0.3-0.1,0.3-0.3v-8.2c0-0.3-0.3,0,0,0h16.4c0.3,0,0-0.3,0,0v8.2c0,0.2,0.1,0.3,0.3,0.3h19h4c0.2,0,0.3-0.1,0.3-0.3v-8.5
		v-19.8c0-0.2-0.1-0.3-0.3-0.3h-6.2c-0.3,0,0,0.3,0,0v-16.4c0-0.3-0.3,0,0,0h6.2c0.2,0,0.3-0.1,0.3-0.3v-17c0-0.2-0.1-0.3-0.3-0.3
		h-6.2c-0.3,0,0,0.3,0,0v-16.4c0-0.3-0.3,0,0,0h6.2c0.2,0,0.3-0.1,0.3-0.3v-17c0-0.2-0.1-0.3-0.3-0.3h-6.2c-0.3,0,0,0.3,0,0v-16.4
		c0-0.3-0.3,0,0,0h6.2c0.2,0,0.3-0.1,0.3-0.3v-17c0-0.2-0.1-0.3-0.3-0.3h-6.2c-0.3,0,0,0.3,0,0v-16.4c0-0.3-0.3,0,0,0h6.2
		c0.2,0,0.3-0.1,0.3-0.3v-17c0-0.2-0.1-0.3-0.3-0.3h-6.2c-0.3,0,0,0.3,0,0v-16.4c0-0.3-0.3,0,0,0h6.2c0.2,0,0.3-0.1,0.3-0.3v-17
		c0-0.2-0.1-0.3-0.3-0.3h-6.2c-0.3,0,0,0.3,0,0v-16.4c0-0.3-0.3,0,0,0h6.2c0.2,0,0.3-0.1,0.3-0.3v-17c0-0.2-0.1-0.3-0.3-0.3h-6.2
		c-0.3,0,0,0.3,0,0v-16.4c0-0.3-0.3,0,0,0h6.2c0.2,0,0.3-0.1,0.3-0.3v-17c0-0.2-0.1-0.3-0.3-0.3h-6.2c-0.3,0,0,0.3,0,0v-16.4
		c0-0.3-0.3,0,0,0h6.2c0.2,0,0.3-0.1,0.3-0.3v-17c0-0.2-0.1-0.3-0.3-0.3h-6.2c-0.3,0,0,0.3,0,0v-16.4c0-0.3-0.3,0,0,0h6.2
		c0.2,0,0.3-0.1,0.3-0.3v-17c0-0.2-0.1-0.3-0.3-0.3h-6.2c-0.3,0,0,0.3,0,0v-16.4c0-0.3-0.3,0,0,0h6.2c0.2,0,0.3-0.1,0.3-0.3v-17
		c0-0.2-0.1-0.3-0.3-0.3h-6.2c-0.3,0,0,0.3,0,0v-16.4c0-0.3-0.3,0,0,0h6.2c0.2,0,0.3-0.1,0.3-0.3v-17c0-0.2-0.1-0.3-0.3-0.3h-6.2
		c-0.3,0,0,0.3,0,0v-16.4c0-0.3-0.3,0,0,0h6.2c0.2,0,0.3-0.1,0.3-0.3v-17c0-0.2-0.1-0.3-0.3-0.3h-6.2c-0.3,0,0,0.3,0,0v-16.4
		c0-0.3-0.3,0,0,0h6.2c0.2,0,0.3-0.1,0.3-0.3v-17c0-0.2-0.1-0.3-0.3-0.3h-6.2c-0.3,0,0,0.3,0,0v-16.4c0-0.3-0.3,0,0,0h6.2
		c0.2,0,0.3-0.1,0.3-0.3v-17c0-0.2-0.1-0.3-0.3-0.3h-6.2c-0.3,0,0,0.3,0,0V91.3c0-0.3-0.3,0,0,0h6.2c0.2,0,0.3-0.1,0.3-0.3V74
		c0-0.2-0.1-0.3-0.3-0.3h-6.2c-0.3,0,0,0.3,0,0V57.3c0-0.3-0.3,0,0,0h6.2c0.2,0,0.3-0.1,0.3-0.3V37.1v-8.5c0-0.2-0.1-0.3-0.3-0.3h-4
		h-19c-0.2,0-0.3,0.1-0.3,0.3v8.2c0,0.3,0.3,0,0,0h-16.4c-0.3,0,0,0.3,0,0v-8.2c0-0.2-0.1-0.3-0.3-0.3h-17c-0.2,0-0.3,0.1-0.3,0.3
		v8.2c0,0.3,0.3,0,0,0h-16.4c-0.3,0,0,0.3,0,0v-8.2c0-0.2-0.1-0.3-0.3-0.3h-17c-0.2,0-0.3,0.1-0.3,0.3v8.2c0,0.3,0.3,0,0,0h-16.4
		c-0.3,0,0,0.3,0,0v-8.2c0-0.2-0.1-0.3-0.3-0.3h-17c-0.2,0-0.3,0.1-0.3,0.3v8.2c0,0.3,0.3,0,0,0h-16.4c-0.3,0,0,0.3,0,0v-8.2
		c0-0.2-0.1-0.3-0.3-0.3h-17c-0.2,0-0.3,0.1-0.3,0.3v8.2c0,0.3,0.3,0,0,0h-16.4c-0.3,0,0,0.3,0,0v-8.2c0-0.2-0.1-0.3-0.3-0.3h-17
		c-0.2,0-0.3,0.1-0.3,0.3v8.2c0,0.3,0.3,0,0,0h-16.4c-0.3,0,0,0.3,0,0v-8.2c0-0.2-0.1-0.3-0.3-0.3h-17c-0.2,0-0.3,0.1-0.3,0.3v8.2
		c0,0.3,0.3,0,0,0h-16.4c-0.3,0,0,0.3,0,0v-8.2c0-0.2-0.1-0.3-0.3-0.3h-19h-3.1c-0.2,0-0.3,0.1-0.3,0.3v8.5V57
		c0,0.2,0.1,0.3,0.3,0.3h5.2c0.3,0,0-0.3,0,0v16.4c0,0.3,0.3,0,0,0h-5.2c-0.2,0-0.3,0.1-0.3,0.3v17c0,0.2,0.1,0.3,0.3,0.3h5.2
		c0.3,0,0-0.3,0,0v16.4c0,0.3,0.3,0,0,0h-5.2c-0.2,0-0.3,0.1-0.3,0.3v17c0,0.2,0.1,0.3,0.3,0.3h5.2c0.3,0,0-0.3,0,0v16.4
		c0,0.3,0.3,0,0,0h-5.2c-0.2,0-0.3,0.1-0.3,0.3v17c0,0.2,0.1,0.3,0.3,0.3h5.2c0.3,0,0-0.3,0,0v16.4c0,0.3,0.3,0,0,0h-5.2
		c-0.2,0-0.3,0.1-0.3,0.3v17c0,0.2,0.1,0.3,0.3,0.3h5.2c0.3,0,0-0.3,0,0v16.4c0,0.3,0.3,0,0,0h-5.2c-0.2,0-0.3,0.1-0.3,0.3v17
		c0,0.2,0.1,0.3,0.3,0.3h5.2c0.3,0,0-0.3,0,0v16.4c0,0.3,0.3,0,0,0h-5.2c-0.2,0-0.3,0.1-0.3,0.3v17c0,0.2,0.1,0.3,0.3,0.3h5.2
		c0.3,0,0-0.3,0,0v16.4c0,0.3,0.3,0,0,0h-5.2c-0.2,0-0.3,0.1-0.3,0.3v17c0,0.2,0.1,0.3,0.3,0.3h5.2c0.3,0,0-0.3,0,0v16.4
		c0,0.3,0.3,0,0,0h-5.2c-0.2,0-0.3,0.1-0.3,0.3v17c0,0.2,0.1,0.3,0.3,0.3h5.2c0.3,0,0-0.3,0,0v16.4c0,0.3,0.3,0,0,0h-5.2
		c-0.2,0-0.3,0.1-0.3,0.3v17c0,0.2,0.1,0.3,0.3,0.3h5.2c0.3,0,0-0.3,0,0v16.4c0,0.3,0.3,0,0,0h-5.2c-0.2,0-0.3,0.1-0.3,0.3v17
		c0,0.2,0.1,0.3,0.3,0.3h5.2c0.3,0,0-0.3,0,0v16.4c0,0.3,0.3,0,0,0h-5.2c-0.2,0-0.3,0.1-0.3,0.3v17c0,0.2,0.1,0.3,0.3,0.3h5.2
		c0.3,0,0-0.3,0,0v16.4c0,0.3,0.3,0,0,0h-5.2c-0.2,0-0.3,0.1-0.3,0.3v17c0,0.2,0.1,0.3,0.3,0.3h5.2c0.3,0,0-0.3,0,0v16.4
		c0,0.3,0.3,0,0,0h-5.2c-0.2,0-0.3,0.1-0.3,0.3v17c0,0.2,0.1,0.3,0.3,0.3h5.2c0.3,0,0-0.3,0,0v16.4c0,0.3,0.3,0,0,0h-5.2
		c-0.2,0-0.3,0.1-0.3,0.3v17c0,0.2,0.1,0.3,0.3,0.3h5.2c0.3,0,0-0.3,0,0v16.4c0,0.3,0.3,0,0,0h-5.2c-0.2,0-0.3,0.1-0.3,0.3v17
		c0,0.2,0.1,0.3,0.3,0.3h5.2c0.3,0,0-0.3,0,0v16.4c0,0.3,0.3,0,0,0h-5.2c-0.2,0-0.3,0.1-0.3,0.3v19.8v8.5c0,0.2,0.1,0.3,0.3,0.3h3.1
		V612.9z"/>
	<path class="st0" d="M1342.2,612.9h16c0.2,0,0.3-0.1,0.3-0.3v-8.2c0-0.3-0.3,0,0,0h16.4c0.3,0,0-0.3,0,0v8.2c0,0.2,0.1,0.3,0.3,0.3
		h17c0.2,0,0.3-0.1,0.3-0.3v-8.2c0-0.3-0.3,0,0,0h16.4c0.3,0,0-0.3,0,0v8.2c0,0.2,0.1,0.3,0.3,0.3h17c0.2,0,0.3-0.1,0.3-0.3v-8.2
		c0-0.3-0.3,0,0,0h16.4c0.3,0,0-0.3,0,0v8.2c0,0.2,0.1,0.3,0.3,0.3h16c0.2,0,0.3-0.1,0.3-0.3v-8.5v-19.6c0-0.3-0.3,0,0,0h8.2
		c0.2,0,0.3-0.1,0.3-0.3v-17c0-0.2-0.1-0.3-0.3-0.3h-8.2c-0.3,0,0,0.3,0,0v-16.4c0-0.3-0.3,0,0,0h8.2c0.2,0,0.3-0.1,0.3-0.3v-17
		c0-0.2-0.1-0.3-0.3-0.3h-8.2c-0.3,0,0,0.3,0,0v-16.4c0-0.3-0.3,0,0,0h8.2c0.2,0,0.3-0.1,0.3-0.3v-17c0-0.2-0.1-0.3-0.3-0.3h-8.2
		c-0.3,0,0,0.3,0,0v-16.4c0-0.3-0.3,0,0,0h8.2c0.2,0,0.3-0.1,0.3-0.3v-17c0-0.2-0.1-0.3-0.3-0.3h-8.2c-0.3,0,0,0.3,0,0v-16.4
		c0-0.3-0.3,0,0,0h8.2c0.2,0,0.3-0.1,0.3-0.3v-17c0-0.2-0.1-0.3-0.3-0.3h-8.2c-0.3,0,0,0.3,0,0v-16.4c0-0.3-0.3,0,0,0h8.2
		c0.2,0,0.3-0.1,0.3-0.3v-17c0-0.2-0.1-0.3-0.3-0.3h-8.2c-0.3,0,0,0.3,0,0v-16.4c0-0.3-0.3,0,0,0h8.2c0.2,0,0.3-0.1,0.3-0.3v-17
		c0-0.2-0.1-0.3-0.3-0.3h-8.2c-0.3,0,0,0.3,0,0v-16.4c0-0.3-0.3,0,0,0h8.2c0.2,0,0.3-0.1,0.3-0.3v-17c0-0.2-0.1-0.3-0.3-0.3h-8.2
		c-0.3,0,0,0.3,0,0v-16.4c0-0.3-0.3,0,0,0h8.2c0.2,0,0.3-0.1,0.3-0.3v-17c0-0.2-0.1-0.3-0.3-0.3h-8.2c-0.3,0,0,0.3,0,0v-16.4
		c0-0.3-0.3,0,0,0h8.2c0.2,0,0.3-0.1,0.3-0.3v-17c0-0.2-0.1-0.3-0.3-0.3h-8.2c-0.3,0,0,0.3,0,0v-16.4c0-0.3-0.3,0,0,0h8.2
		c0.2,0,0.3-0.1,0.3-0.3v-17c0-0.2-0.1-0.3-0.3-0.3h-8.2c-0.3,0,0,0.3,0,0v-16.4c0-0.3-0.3,0,0,0h8.2c0.2,0,0.3-0.1,0.3-0.3v-17
		c0-0.2-0.1-0.3-0.3-0.3h-8.2c-0.3,0,0,0.3,0,0v-16.4c0-0.3-0.3,0,0,0h8.2c0.2,0,0.3-0.1,0.3-0.3v-17c0-0.2-0.1-0.3-0.3-0.3h-8.2
		c-0.3,0,0,0.3,0,0v-16.4c0-0.3-0.3,0,0,0h8.2c0.2,0,0.3-0.1,0.3-0.3v-17c0-0.2-0.1-0.3-0.3-0.3h-8.2c-0.3,0,0,0.3,0,0v-16.4
		c0-0.3-0.3,0,0,0h8.2c0.2,0,0.3-0.1,0.3-0.3V91c0-0.2-0.1-0.3-0.3-0.3h-8.2c-0.3,0,0,0.3,0,0V74.3c0-0.3-0.3,0,0,0h8.2
		c0.2,0,0.3-0.1,0.3-0.3V57c0-0.2-0.1-0.3-0.3-0.3h-8.2c-0.3,0,0,0.3,0,0V37.1v-8.5c0-0.2-0.1-0.3-0.3-0.3h-16
		c-0.2,0-0.3,0.1-0.3,0.3v8.2c0,0.3,0.3,0,0,0h-16.4c-0.3,0,0,0.3,0,0v-8.2c0-0.2-0.1-0.3-0.3-0.3h-17c-0.2,0-0.3,0.1-0.3,0.3v8.2
		c0,0.3,0.3,0,0,0h-16.4c-0.3,0,0,0.3,0,0v-8.2c0-0.2-0.1-0.3-0.3-0.3h-17c-0.2,0-0.3,0.1-0.3,0.3v8.2c0,0.3,0.3,0,0,0h-16.4
		c-0.3,0,0,0.3,0,0v-8.2c0-0.2-0.1-0.3-0.3-0.3h-16h2.5c-0.2,0-0.3,0.1-0.3,0.3v8.5v19.6c0,0.3,0.3,0,0,0h-6.2
		c-0.2,0-0.3,0.1-0.3,0.3v17c0,0.2,0.1,0.3,0.3,0.3h6.2c0.3,0,0-0.3,0,0v16.4c0,0.3,0.3,0,0,0h-6.2c-0.2,0-0.3,0.1-0.3,0.3v17
		c0,0.2,0.1,0.3,0.3,0.3h6.2c0.3,0,0-0.3,0,0v16.4c0,0.3,0.3,0,0,0h-6.2c-0.2,0-0.3,0.1-0.3,0.3v17c0,0.2,0.1,0.3,0.3,0.3h6.2
		c0.3,0,0-0.3,0,0v16.4c0,0.3,0.3,0,0,0h-6.2c-0.2,0-0.3,0.1-0.3,0.3v17c0,0.2,0.1,0.3,0.3,0.3h6.2c0.3,0,0-0.3,0,0v16.4
		c0,0.3,0.3,0,0,0h-6.2c-0.2,0-0.3,0.1-0.3,0.3v17c0,0.2,0.1,0.3,0.3,0.3h6.2c0.3,0,0-0.3,0,0v16.4c0,0.3,0.3,0,0,0h-6.2
		c-0.2,0-0.3,0.1-0.3,0.3v17c0,0.2,0.1,0.3,0.3,0.3h6.2c0.3,0,0-0.3,0,0v16.4c0,0.3,0.3,0,0,0h-6.2c-0.2,0-0.3,0.1-0.3,0.3v17
		c0,0.2,0.1,0.3,0.3,0.3h6.2c0.3,0,0-0.3,0,0v16.4c0,0.3,0.3,0,0,0h-6.2c-0.2,0-0.3,0.1-0.3,0.3v17c0,0.2,0.1,0.3,0.3,0.3h6.2
		c0.3,0,0-0.3,0,0v16.4c0,0.3,0.3,0,0,0h-6.2c-0.2,0-0.3,0.1-0.3,0.3v17c0,0.2,0.1,0.3,0.3,0.3h6.2c0.3,0,0-0.3,0,0v16.4
		c0,0.3,0.3,0,0,0h-6.2c-0.2,0-0.3,0.1-0.3,0.3v17c0,0.2,0.1,0.3,0.3,0.3h6.2c0.3,0,0-0.3,0,0v16.4c0,0.3,0.3,0,0,0h-6.2
		c-0.2,0-0.3,0.1-0.3,0.3v17c0,0.2,0.1,0.3,0.3,0.3h6.2c0.3,0,0-0.3,0,0v16.4c0,0.3,0.3,0,0,0h-6.2c-0.2,0-0.3,0.1-0.3,0.3v17
		c0,0.2,0.1,0.3,0.3,0.3h6.2c0.3,0,0-0.3,0,0v16.4c0,0.3,0.3,0,0,0h-6.2c-0.2,0-0.3,0.1-0.3,0.3v17c0,0.2,0.1,0.3,0.3,0.3h6.2
		c0.3,0,0-0.3,0,0v16.4c0,0.3,0.3,0,0,0h-6.2c-0.2,0-0.3,0.1-0.3,0.3v17c0,0.2,0.1,0.3,0.3,0.3h6.2c0.3,0,0-0.3,0,0v16.4
		c0,0.3,0.3,0,0,0h-6.2c-0.2,0-0.3,0.1-0.3,0.3v17c0,0.2,0.1,0.3,0.3,0.3h6.2c0.3,0,0-0.3,0,0v16.4c0,0.3,0.3,0,0,0h-6.2
		c-0.2,0-0.3,0.1-0.3,0.3v17c0,0.2,0.1,0.3,0.3,0.3h6.2c0.3,0,0-0.3,0,0v19.6v8.5c0,0.2,0.1,0.3,0.3,0.3h-2.5V612.9z"/>
	<path class="st0" d="M1481.3,612.9h14.2c0.2,0,0.3-0.1,0.3-0.3v-8.2c0-0.3-0.3,0,0,0h16.4c0.3,0,0-0.3,0,0v8.2
		c0,0.2,0.1,0.3,0.3,0.3h17c0.2,0,0.3-0.1,0.3-0.3v-8.2c0-0.3-0.3,0,0,0h16.4c0.3,0,0-0.3,0,0v8.2c0,0.2,0.1,0.3,0.3,0.3h17
		c0.2,0,0.3-0.1,0.3-0.3v-8.2c0-0.3-0.3,0,0,0h16.4c0.3,0,0-0.3,0,0v8.2c0,0.2,0.1,0.3,0.3,0.3h17c0.2,0,0.3-0.1,0.3-0.3v-8.2
		c0-0.3-0.3,0,0,0h16.4c0.3,0,0-0.3,0,0v8.2c0,0.2,0.1,0.3,0.3,0.3h17c0.2,0,0.3-0.1,0.3-0.3v-8.2c0-0.3-0.3,0,0,0h16.4
		c0.3,0,0-0.3,0,0v8.2c0,0.2,0.1,0.3,0.3,0.3h17c0.2,0,0.3-0.1,0.3-0.3v-8.2c0-0.3-0.3,0,0,0h16.4c0.3,0,0-0.3,0,0v8.2
		c0,0.2,0.1,0.3,0.3,0.3h17c0.2,0,0.3-0.1,0.3-0.3v-8.2c0-0.3-0.3,0,0,0h16.4c0.3,0,0-0.3,0,0v8.2c0,0.2,0.1,0.3,0.3,0.3h17
		c0.2,0,0.3-0.1,0.3-0.3v-8.2c0-0.3-0.3,0,0,0h16.4c0.3,0,0-0.3,0,0v8.2c0,0.2,0.1,0.3,0.3,0.3h14.2c0.2,0,0.3-0.1,0.3-0.3v-8.5
		v-19.6c0-0.3-0.3,0,0,0h8.2c0.2,0,0.3-0.1,0.3-0.3v-17c0-0.2-0.1-0.3-0.3-0.3h-8.2c-0.3,0,0,0.3,0,0v-16.4c0-0.3-0.3,0,0,0h8.2
		c0.2,0,0.3-0.1,0.3-0.3v-17c0-0.2-0.1-0.3-0.3-0.3h-8.2c-0.3,0,0,0.3,0,0v-16.4c0-0.3-0.3,0,0,0h8.2c0.2,0,0.3-0.1,0.3-0.3v-17
		c0-0.2-0.1-0.3-0.3-0.3h-8.2c-0.3,0,0,0.3,0,0v-16.4c0-0.3-0.3,0,0,0h8.2c0.2,0,0.3-0.1,0.3-0.3v-17c0-0.2-0.1-0.3-0.3-0.3h-8.2
		c-0.3,0,0,0.3,0,0v-16.4c0-0.3-0.3,0,0,0h8.2c0.2,0,0.3-0.1,0.3-0.3v-17c0-0.2-0.1-0.3-0.3-0.3h-8.2c-0.3,0,0,0.3,0,0v-16.4
		c0-0.3-0.3,0,0,0h8.2c0.2,0,0.3-0.1,0.3-0.3v-17c0-0.2-0.1-0.3-0.3-0.3h-8.2c-0.3,0,0,0.3,0,0v-16.4c0-0.3-0.3,0,0,0h8.2
		c0.2,0,0.3-0.1,0.3-0.3v-17c0-0.2-0.1-0.3-0.3-0.3h-8.2c-0.3,0,0,0.3,0,0v-16.4c0-0.3-0.3,0,0,0h8.2c0.2,0,0.3-0.1,0.3-0.3v-17
		c0-0.2-0.1-0.3-0.3-0.3h-8.2c-0.3,0,0,0.3,0,0v-16.4c0-0.3-0.3,0,0,0h8.2c0.2,0,0.3-0.1,0.3-0.3v-17c0-0.2-0.1-0.3-0.3-0.3h-8.2
		c-0.3,0,0,0.3,0,0v-16.4c0-0.3-0.3,0,0,0h8.2c0.2,0,0.3-0.1,0.3-0.3v-17c0-0.2-0.1-0.3-0.3-0.3h-8.2c-0.3,0,0,0.3,0,0v-16.4
		c0-0.3-0.3,0,0,0h8.2c0.2,0,0.3-0.1,0.3-0.3v-17c0-0.2-0.1-0.3-0.3-0.3h-8.2c-0.3,0,0,0.3,0,0v-16.4c0-0.3-0.3,0,0,0h8.2
		c0.2,0,0.3-0.1,0.3-0.3v-17c0-0.2-0.1-0.3-0.3-0.3h-8.2c-0.3,0,0,0.3,0,0v-16.4c0-0.3-0.3,0,0,0h8.2c0.2,0,0.3-0.1,0.3-0.3v-17
		c0-0.2-0.1-0.3-0.3-0.3h-8.2c-0.3,0,0,0.3,0,0v-16.4c0-0.3-0.3,0,0,0h8.2c0.2,0,0.3-0.1,0.3-0.3v-17c0-0.2-0.1-0.3-0.3-0.3h-8.2
		c-0.3,0,0,0.3,0,0v-16.4c0-0.3-0.3,0,0,0h8.2c0.2,0,0.3-0.1,0.3-0.3V91c0-0.2-0.1-0.3-0.3-0.3h-8.2c-0.3,0,0,0.3,0,0V74.3
		c0-0.3-0.3,0,0,0h8.2c0.2,0,0.3-0.1,0.3-0.3V57c0-0.2-0.1-0.3-0.3-0.3h-8.2c-0.3,0,0,0.3,0,0V37.1v-8.5c0-0.2-0.1-0.3-0.3-0.3
		h-14.2c-0.2,0-0.3,0.1-0.3,0.3v8.2c0,0.3,0.3,0,0,0h-16.4c-0.3,0,0,0.3,0,0v-8.2c0-0.2-0.1-0.3-0.3-0.3h-17c-0.2,0-0.3,0.1-0.3,0.3
		v8.2c0,0.3,0.3,0,0,0h-16.4c-0.3,0,0,0.3,0,0v-8.2c0-0.2-0.1-0.3-0.3-0.3h-17c-0.2,0-0.3,0.1-0.3,0.3v8.2c0,0.3,0.3,0,0,0h-16.4
		c-0.3,0,0,0.3,0,0v-8.2c0-0.2-0.1-0.3-0.3-0.3h-17c-0.2,0-0.3,0.1-0.3,0.3v8.2c0,0.3,0.3,0,0,0h-16.4c-0.3,0,0,0.3,0,0v-8.2
		c0-0.2-0.1-0.3-0.3-0.3h-17c-0.2,0-0.3,0.1-0.3,0.3v8.2c0,0.3,0.3,0,0,0h-16.4c-0.3,0,0,0.3,0,0v-8.2c0-0.2-0.1-0.3-0.3-0.3h-17
		c-0.2,0-0.3,0.1-0.3,0.3v8.2c0,0.3,0.3,0,0,0h-16.4c-0.3,0,0,0.3,0,0v-8.2c0-0.2-0.1-0.3-0.3-0.3h-17c-0.2,0-0.3,0.1-0.3,0.3v8.2
		c0,0.3,0.3,0,0,0h-16.4c-0.3,0,0,0.3,0,0v-8.2c0-0.2-0.1-0.3-0.3-0.3h-17c-0.2,0-0.3,0.1-0.3,0.3v8.2c0,0.3,0.3,0,0,0h-16.4
		c-0.3,0,0,0.3,0,0v-8.2c0-0.2-0.1-0.3-0.3-0.3h-14.2h-8.5c-0.2,0-0.3,0.1-0.3,0.3v8.5V57c0,0.2,0.1,0.3,0.3,0.3h8.2
		c0.3,0,0-0.3,0,0v16.4c0,0.3,0.3,0,0,0h-8.2c-0.2,0-0.3,0.1-0.3,0.3v17c0,0.2,0.1,0.3,0.3,0.3h8.2c0.3,0,0-0.3,0,0v16.4
		c0,0.3,0.3,0,0,0h-8.2c-0.2,0-0.3,0.1-0.3,0.3v17c0,0.2,0.1,0.3,0.3,0.3h8.2c0.3,0,0-0.3,0,0v16.4c0,0.3,0.3,0,0,0h-8.2
		c-0.2,0-0.3,0.1-0.3,0.3v17c0,0.2,0.1,0.3,0.3,0.3h8.2c0.3,0,0-0.3,0,0v16.4c0,0.3,0.3,0,0,0h-8.2c-0.2,0-0.3,0.1-0.3,0.3v17
		c0,0.2,0.1,0.3,0.3,0.3h8.2c0.3,0,0-0.3,0,0v16.4c0,0.3,0.3,0,0,0h-8.2c-0.2,0-0.3,0.1-0.3,0.3v17c0,0.2,0.1,0.3,0.3,0.3h8.2
		c0.3,0,0-0.3,0,0v16.4c0,0.3,0.3,0,0,0h-8.2c-0.2,0-0.3,0.1-0.3,0.3v17c0,0.2,0.1,0.3,0.3,0.3h8.2c0.3,0,0-0.3,0,0v16.4
		c0,0.3,0.3,0,0,0h-8.2c-0.2,0-0.3,0.1-0.3,0.3v17c0,0.2,0.1,0.3,0.3,0.3h8.2c0.3,0,0-0.3,0,0v16.4c0,0.3,0.3,0,0,0h-8.2
		c-0.2,0-0.3,0.1-0.3,0.3v17c0,0.2,0.1,0.3,0.3,0.3h8.2c0.3,0,0-0.3,0,0v16.4c0,0.3,0.3,0,0,0h-8.2c-0.2,0-0.3,0.1-0.3,0.3v17
		c0,0.2,0.1,0.3,0.3,0.3h8.2c0.3,0,0-0.3,0,0v16.4c0,0.3,0.3,0,0,0h-8.2c-0.2,0-0.3,0.1-0.3,0.3v17c0,0.2,0.1,0.3,0.3,0.3h8.2
		c0.3,0,0-0.3,0,0v16.4c0,0.3,0.3,0,0,0h-8.2c-0.2,0-0.3,0.1-0.3,0.3v17c0,0.2,0.1,0.3,0.3,0.3h8.2c0.3,0,0-0.3,0,0v16.4
		c0,0.3,0.3,0,0,0h-8.2c-0.2,0-0.3,0.1-0.3,0.3v17c0,0.2,0.1,0.3,0.3,0.3h8.2c0.3,0,0-0.3,0,0v16.4c0,0.3,0.3,0,0,0h-8.2
		c-0.2,0-0.3,0.1-0.3,0.3v17c0,0.2,0.1,0.3,0.3,0.3h8.2c0.3,0,0-0.3,0,0v16.4c0,0.3,0.3,0,0,0h-8.2c-0.2,0-0.3,0.1-0.3,0.3v17
		c0,0.2,0.1,0.3,0.3,0.3h8.2c0.3,0,0-0.3,0,0v16.4c0,0.3,0.3,0,0,0h-8.2c-0.2,0-0.3,0.1-0.3,0.3v17c0,0.2,0.1,0.3,0.3,0.3h8.2
		c0.3,0,0-0.3,0,0v16.4c0,0.3,0.3,0,0,0h-8.2c-0.2,0-0.3,0.1-0.3,0.3v19.8v8.5c0,0.2,0.1,0.3,0.3,0.3h8.5V612.9z"/>
</g>
<circle class="st0" cx="1244.7" cy="501.8" r="9.5"/>
<g class="st3">
	<path d="M1281,543.6v-6.8h1.6v2.5h8.3v-2.5h1.5v6.8h-1.5v-2.4h-8.3v2.4H1281z"/>
	<path d="M1292.3,526.8v1.9l-7.8,3.7l7.8,0v1.9H1281v-1.9l7.8-3.7l-7.8,0v-1.9H1292.3z"/>
	<path d="M1282.5,516.5v3.5h9.8v1.9h-9.8v3.5h-1.5v-8.8H1282.5z"/>
	<path d="M1287.2,508.3v4.7h3.6v-5.5h1.5v7.4H1281v-7.3h1.5v5.4h3.2v-4.7H1287.2z"/>
	<path d="M1292.3,498v1.9l-7.8,3.7l7.8,0v1.9H1281v-1.9l7.8-3.7l-7.8,0V498H1292.3z"/>
	<path d="M1289.4,489.9c-0.3,0-0.5,0.1-0.7,0.2c-0.2,0.1-0.4,0.3-0.5,0.5c-0.2,0.2-0.3,0.5-0.4,0.7c-0.1,0.3-0.2,0.6-0.3,0.9
		c-0.1,0.4-0.3,0.9-0.5,1.3c-0.2,0.4-0.4,0.8-0.7,1.2c-0.3,0.3-0.6,0.6-1,0.8s-0.8,0.3-1.3,0.3s-0.9-0.1-1.3-0.3s-0.7-0.5-1-0.8
		c-0.3-0.4-0.5-0.8-0.6-1.2s-0.2-1-0.2-1.5c0-0.5,0.1-1.1,0.3-1.5s0.4-0.9,0.7-1.2c0.3-0.4,0.7-0.6,1.1-0.8c0.4-0.2,0.9-0.3,1.4-0.3
		v1.9c-0.3,0-0.5,0.1-0.8,0.2c-0.2,0.1-0.4,0.2-0.6,0.4c-0.2,0.2-0.3,0.4-0.4,0.6s-0.1,0.5-0.1,0.9c0,0.3,0,0.5,0.1,0.8
		c0.1,0.2,0.2,0.4,0.3,0.6c0.1,0.2,0.3,0.3,0.5,0.4c0.2,0.1,0.4,0.1,0.7,0.1c0.3,0,0.5-0.1,0.7-0.2c0.2-0.1,0.4-0.3,0.5-0.5
		s0.3-0.5,0.4-0.8c0.1-0.3,0.2-0.6,0.3-0.9c0.1-0.5,0.3-0.9,0.5-1.4c0.2-0.4,0.5-0.8,0.7-1.1s0.6-0.6,1-0.8c0.4-0.2,0.8-0.3,1.3-0.3
		c0.5,0,1,0.1,1.3,0.3c0.4,0.2,0.7,0.5,1,0.9s0.5,0.8,0.6,1.2c0.1,0.5,0.2,1,0.2,1.5c0,0.3,0,0.7-0.1,1s-0.2,0.7-0.3,1
		c-0.1,0.3-0.3,0.6-0.5,0.9c-0.2,0.3-0.4,0.5-0.7,0.7c-0.3,0.2-0.6,0.4-0.9,0.5c-0.3,0.1-0.7,0.2-1.1,0.2v-1.9
		c0.3,0,0.6-0.1,0.9-0.2s0.5-0.3,0.6-0.5c0.2-0.2,0.3-0.5,0.4-0.7c0.1-0.3,0.1-0.6,0.1-0.9c0-0.3,0-0.5-0.1-0.8
		c-0.1-0.2-0.2-0.5-0.3-0.6c-0.1-0.2-0.3-0.3-0.5-0.4C1289.9,489.9,1289.6,489.9,1289.4,489.9z"/>
	<path d="M1281,485.9v-6.8h1.6v2.5h8.3v-2.5h1.5v6.8h-1.5v-2.4h-8.3v2.4H1281z"/>
	<path d="M1282.5,468.5v3.5h9.8v1.9h-9.8v3.5h-1.5v-8.8H1282.5z"/>
	<path d="M1286.4,463.3l-5.4-2.4v-2.1l7.3,3.5l4.1,0v1.8l-4.1,0l-7.2,3.5v-2.1L1286.4,463.3z"/>
</g>
<circle class="st0" cx="1115.4" cy="501.8" r="9.5"/>
<g class="st3">
	<path d="M1163,524.7h-11.4v-2.8c0-0.8,0.1-1.5,0.4-2.1c0.3-0.6,0.6-1.2,1.1-1.6c0.5-0.4,1-0.8,1.7-1s1.4-0.4,2.1-0.4h0.9
		c0.8,0,1.5,0.1,2.1,0.4s1.2,0.6,1.7,1c0.5,0.4,0.8,1,1.1,1.6c0.3,0.6,0.4,1.3,0.4,2.1V524.7z M1153.2,522.8h8.4v-0.9
		c0-0.5-0.1-1-0.3-1.4c-0.2-0.4-0.4-0.7-0.8-1s-0.7-0.5-1.2-0.6c-0.5-0.1-1-0.2-1.5-0.2h-0.9c-0.5,0-1,0.1-1.5,0.2
		c-0.5,0.1-0.8,0.3-1.2,0.6c-0.3,0.3-0.6,0.6-0.8,1c-0.2,0.4-0.3,0.9-0.3,1.4V522.8z"/>
	<path d="M1157.9,508.3v4.7h3.6v-5.5h1.5v7.4h-11.4v-7.3h1.5v5.4h3.2v-4.7H1157.9z"/>
	<path d="M1161.5,503.3v-5.4h1.5v7.3h-11.4v-1.9H1161.5z"/>
	<path d="M1160.4,490.3v3.6l2.6,0.8v1.9l-11.4-3.7v-1.6l11.4-3.6v1.9L1160.4,490.3z M1158.8,493.4v-2.6l-4.5,1.3L1158.8,493.4z"/>
	<path d="M1157.1,482.5l-5.4-2.4v-2.1l7.3,3.5l4.1,0v1.8l-4.1,0l-7.2,3.5v-2.1L1157.1,482.5z"/>
</g>
<g class="st3">
	<path d="M1124.8,234.9c0.5,0.1,1,0.2,1.5,0.4c0.5,0.2,0.8,0.5,1.2,0.8s0.6,0.7,0.7,1.2c0.2,0.5,0.3,1,0.3,1.6
		c0,0.7-0.1,1.3-0.4,1.8s-0.6,0.9-1.1,1.3s-1,0.6-1.6,0.8s-1.3,0.3-2,0.3h-1.6c-0.7,0-1.3-0.1-2-0.3c-0.6-0.2-1.2-0.4-1.6-0.8
		c-0.5-0.3-0.8-0.8-1.1-1.3s-0.4-1.1-0.4-1.8c0-0.6,0.1-1.1,0.3-1.6s0.4-0.9,0.8-1.2c0.3-0.3,0.7-0.6,1.2-0.8c0.5-0.2,1-0.3,1.5-0.4
		v1.9c-0.3,0-0.6,0.1-0.9,0.2c-0.3,0.1-0.5,0.2-0.7,0.4c-0.2,0.2-0.3,0.4-0.4,0.6c-0.1,0.3-0.2,0.6-0.2,0.9c0,0.4,0.1,0.8,0.3,1.1
		c0.2,0.3,0.5,0.5,0.8,0.7c0.3,0.2,0.7,0.3,1.1,0.4c0.4,0.1,0.9,0.1,1.3,0.1h1.6c0.5,0,0.9,0,1.4-0.1c0.4-0.1,0.8-0.2,1.1-0.4
		s0.6-0.4,0.8-0.7c0.2-0.3,0.3-0.6,0.3-1.1c0-0.7-0.2-1.2-0.6-1.5s-0.9-0.5-1.6-0.6V234.9z"/>
	<path d="M1123.3,225.2c0.7,0,1.3,0.1,1.9,0.3s1.2,0.4,1.6,0.8c0.5,0.3,0.8,0.8,1.1,1.3c0.3,0.5,0.4,1.1,0.4,1.8
		c0,0.7-0.1,1.3-0.4,1.8c-0.3,0.5-0.7,0.9-1.1,1.3s-1,0.6-1.6,0.8c-0.6,0.2-1.3,0.3-1.9,0.3h-1.5c-0.4,0-0.9,0-1.3-0.1
		c-0.4-0.1-0.8-0.2-1.2-0.3s-0.7-0.3-1-0.6c-0.3-0.2-0.6-0.5-0.8-0.8c-0.2-0.3-0.4-0.6-0.5-1c-0.1-0.4-0.2-0.8-0.2-1.2
		c0-0.7,0.1-1.3,0.4-1.8c0.3-0.5,0.7-0.9,1.1-1.3s1-0.6,1.6-0.8s1.3-0.3,1.9-0.3H1123.3z M1121.9,227.1c-0.4,0-0.9,0-1.3,0.1
		c-0.4,0.1-0.8,0.2-1.1,0.4s-0.6,0.4-0.8,0.7c-0.2,0.3-0.3,0.6-0.3,1.1c0,0.4,0.1,0.8,0.3,1.1c0.2,0.3,0.5,0.5,0.8,0.7
		s0.7,0.3,1.1,0.3c0.4,0.1,0.8,0.1,1.3,0.1h1.5c0.4,0,0.9,0,1.3-0.1c0.4-0.1,0.8-0.2,1.1-0.3s0.6-0.4,0.8-0.7
		c0.2-0.3,0.3-0.6,0.3-1.1c0-0.4-0.1-0.8-0.3-1.1c-0.2-0.3-0.5-0.5-0.8-0.7s-0.7-0.3-1.1-0.4s-0.8-0.1-1.3-0.1H1121.9z"/>
	<path d="M1128.3,216v1.9l-7.8,3.7l7.8,0v1.9h-11.4v-1.9l7.8-3.7l-7.8,0V216H1128.3z"/>
	<path d="M1118.5,205.7v3.5h9.8v1.9h-9.8v3.5h-1.5v-8.8H1118.5z"/>
	<path d="M1116.9,203.9v-6.8h1.6v2.5h8.3v-2.5h1.5v6.8h-1.5v-2.4h-8.3v2.4H1116.9z"/>
	<path d="M1128.3,187.2v1.9l-7.8,3.7l7.8,0v1.9h-11.4v-1.9l7.8-3.7l-7.8,0v-1.9H1128.3z"/>
	<path d="M1116.9,177.5l7.6,0c0.6,0,1.1,0.1,1.6,0.3c0.5,0.2,0.9,0.4,1.2,0.8s0.6,0.7,0.8,1.2c0.2,0.5,0.3,1,0.3,1.6
		c0,0.6-0.1,1.1-0.3,1.5c-0.2,0.5-0.5,0.9-0.8,1.2s-0.8,0.6-1.2,0.8c-0.5,0.2-1,0.3-1.6,0.3l-7.6,0v-1.8l7.6,0c0.3,0,0.7,0,1-0.1
		c0.3-0.1,0.5-0.2,0.8-0.4s0.4-0.4,0.5-0.6c0.1-0.2,0.2-0.5,0.2-0.8c0-0.3-0.1-0.6-0.2-0.8c-0.1-0.2-0.3-0.4-0.5-0.6
		c-0.2-0.2-0.5-0.3-0.8-0.4c-0.3-0.1-0.6-0.1-1-0.1l-7.6,0V177.5z"/>
	<path d="M1123.3,167.6c0.7,0,1.3,0.1,1.9,0.3s1.2,0.4,1.6,0.8c0.5,0.3,0.8,0.8,1.1,1.3c0.3,0.5,0.4,1.1,0.4,1.8
		c0,0.7-0.1,1.3-0.4,1.8c-0.3,0.5-0.7,0.9-1.1,1.3s-1,0.6-1.6,0.8c-0.6,0.2-1.3,0.3-1.9,0.3h-1.5c-0.4,0-0.9,0-1.3-0.1
		c-0.4-0.1-0.8-0.2-1.2-0.3s-0.7-0.3-1-0.6c-0.3-0.2-0.6-0.5-0.8-0.8c-0.2-0.3-0.4-0.6-0.5-1c-0.1-0.4-0.2-0.8-0.2-1.2
		c0-0.7,0.1-1.3,0.4-1.8c0.3-0.5,0.7-0.9,1.1-1.3s1-0.6,1.6-0.8s1.3-0.3,1.9-0.3H1123.3z M1121.9,169.5c-0.4,0-0.9,0-1.3,0.1
		c-0.4,0.1-0.8,0.2-1.1,0.4s-0.6,0.4-0.8,0.7c-0.2,0.3-0.3,0.6-0.3,1.1c0,0.4,0.1,0.8,0.3,1.1c0.2,0.3,0.5,0.5,0.8,0.7
		s0.7,0.3,1.1,0.3c0.4,0.1,0.8,0.1,1.3,0.1h1.5c0.4,0,0.9,0,1.3-0.1c0.4-0.1,0.8-0.2,1.1-0.3s0.6-0.4,0.8-0.7
		c0.2-0.3,0.3-0.6,0.3-1.1c0-0.4-0.1-0.8-0.3-1.1c-0.2-0.3-0.5-0.5-0.8-0.7s-0.7-0.3-1.1-0.4s-0.8-0.1-1.3-0.1H1121.9z"/>
	<path d="M1116.9,158.3l7.6,0c0.6,0,1.1,0.1,1.6,0.3c0.5,0.2,0.9,0.4,1.2,0.8s0.6,0.7,0.8,1.2c0.2,0.5,0.3,1,0.3,1.6
		c0,0.6-0.1,1.1-0.3,1.5c-0.2,0.5-0.5,0.9-0.8,1.2s-0.8,0.6-1.2,0.8c-0.5,0.2-1,0.3-1.6,0.3l-7.6,0V164l7.6,0c0.3,0,0.7,0,1-0.1
		c0.3-0.1,0.5-0.2,0.8-0.4s0.4-0.4,0.5-0.6c0.1-0.2,0.2-0.5,0.2-0.8c0-0.3-0.1-0.6-0.2-0.8c-0.1-0.2-0.3-0.4-0.5-0.6
		c-0.2-0.2-0.5-0.3-0.8-0.4c-0.3-0.1-0.6-0.1-1-0.1l-7.6,0V158.3z"/>
	<path d="M1125.4,150.2c-0.3,0-0.5,0.1-0.7,0.2c-0.2,0.1-0.4,0.3-0.5,0.5c-0.2,0.2-0.3,0.5-0.4,0.7c-0.1,0.3-0.2,0.6-0.3,0.9
		c-0.1,0.4-0.3,0.9-0.5,1.3c-0.2,0.4-0.4,0.8-0.7,1.2c-0.3,0.3-0.6,0.6-1,0.8s-0.8,0.3-1.3,0.3s-0.9-0.1-1.3-0.3s-0.7-0.5-1-0.8
		c-0.3-0.4-0.5-0.8-0.6-1.2s-0.2-1-0.2-1.5c0-0.5,0.1-1.1,0.3-1.5s0.4-0.9,0.7-1.2c0.3-0.4,0.7-0.6,1.1-0.8c0.4-0.2,0.9-0.3,1.4-0.3
		v1.9c-0.3,0-0.5,0.1-0.8,0.2c-0.2,0.1-0.4,0.2-0.6,0.4c-0.2,0.2-0.3,0.4-0.4,0.6s-0.1,0.5-0.1,0.9c0,0.3,0,0.5,0.1,0.8
		c0.1,0.2,0.2,0.4,0.3,0.6c0.1,0.2,0.3,0.3,0.5,0.4c0.2,0.1,0.4,0.1,0.7,0.1c0.3,0,0.5-0.1,0.7-0.2c0.2-0.1,0.4-0.3,0.5-0.5
		s0.3-0.5,0.4-0.8c0.1-0.3,0.2-0.6,0.3-0.9c0.1-0.5,0.3-0.9,0.5-1.4c0.2-0.4,0.5-0.8,0.7-1.1s0.6-0.6,1-0.8c0.4-0.2,0.8-0.3,1.3-0.3
		c0.5,0,1,0.1,1.3,0.3c0.4,0.2,0.7,0.5,1,0.9s0.5,0.8,0.6,1.2c0.1,0.5,0.2,1,0.2,1.5c0,0.3,0,0.7-0.1,1s-0.2,0.7-0.3,1
		c-0.1,0.3-0.3,0.6-0.5,0.9c-0.2,0.3-0.4,0.5-0.7,0.7c-0.3,0.2-0.6,0.4-0.9,0.5c-0.3,0.1-0.7,0.2-1.1,0.2v-1.9
		c0.3,0,0.6-0.1,0.9-0.2s0.5-0.3,0.6-0.5c0.2-0.2,0.3-0.5,0.4-0.7c0.1-0.3,0.1-0.6,0.1-0.9c0-0.3,0-0.5-0.1-0.8
		c-0.1-0.2-0.2-0.5-0.3-0.6c-0.1-0.2-0.3-0.3-0.5-0.4C1125.8,150.3,1125.6,150.2,1125.4,150.2z"/>
</g>
<circle class="st4" cx="1122.8" cy="271.1" r="7.4"/>
<g class="st3">
	<path d="M1160.2,240.5h4.4v1.9h-11.4v-3.8c0-0.6,0.1-1.1,0.3-1.6c0.2-0.5,0.4-0.9,0.7-1.2c0.3-0.3,0.7-0.6,1.1-0.8s0.9-0.3,1.5-0.3
		c0.5,0,1,0.1,1.4,0.3s0.8,0.5,1.1,0.8c0.3,0.3,0.5,0.8,0.7,1.2c0.2,0.5,0.2,1,0.2,1.6V240.5z M1158.7,240.5v-1.9
		c0-0.3,0-0.6-0.1-0.9s-0.2-0.5-0.4-0.6c-0.2-0.2-0.4-0.3-0.6-0.4s-0.5-0.1-0.8-0.1c-0.3,0-0.6,0-0.8,0.1s-0.5,0.2-0.6,0.4
		c-0.2,0.2-0.3,0.4-0.4,0.6s-0.2,0.5-0.2,0.9v1.9H1158.7z"/>
	<path d="M1153.2,225.5l7.6,0c0.6,0,1.1,0.1,1.6,0.3c0.5,0.2,0.9,0.4,1.2,0.8s0.6,0.7,0.8,1.2c0.2,0.5,0.3,1,0.3,1.6
		c0,0.6-0.1,1.1-0.3,1.5c-0.2,0.5-0.5,0.9-0.8,1.2s-0.8,0.6-1.2,0.8c-0.5,0.2-1,0.3-1.6,0.3l-7.6,0v-1.8l7.6,0c0.3,0,0.7,0,1-0.1
		c0.3-0.1,0.5-0.2,0.8-0.4s0.4-0.4,0.5-0.6c0.1-0.2,0.2-0.5,0.2-0.8c0-0.3-0.1-0.6-0.2-0.8c-0.1-0.2-0.3-0.4-0.5-0.6
		c-0.2-0.2-0.5-0.3-0.8-0.4c-0.3-0.1-0.6-0.1-1-0.1l-7.6,0V225.5z"/>
	<path d="M1163.1,221.3v-5.4h1.5v7.3h-11.4v-1.9H1163.1z"/>
	<path d="M1161.7,207.8c-0.3,0-0.5,0.1-0.7,0.2c-0.2,0.1-0.4,0.3-0.5,0.5c-0.2,0.2-0.3,0.5-0.4,0.7c-0.1,0.3-0.2,0.6-0.3,0.9
		c-0.1,0.4-0.3,0.9-0.5,1.3c-0.2,0.4-0.4,0.8-0.7,1.2c-0.3,0.3-0.6,0.6-1,0.8s-0.8,0.3-1.3,0.3s-0.9-0.1-1.3-0.3s-0.7-0.5-1-0.8
		c-0.3-0.4-0.5-0.8-0.6-1.2s-0.2-1-0.2-1.5c0-0.5,0.1-1.1,0.3-1.5s0.4-0.9,0.7-1.2c0.3-0.4,0.7-0.6,1.1-0.8c0.4-0.2,0.9-0.3,1.4-0.3
		v1.9c-0.3,0-0.5,0.1-0.8,0.2c-0.2,0.1-0.4,0.2-0.6,0.4c-0.2,0.2-0.3,0.4-0.4,0.6s-0.1,0.5-0.1,0.9c0,0.3,0,0.5,0.1,0.8
		c0.1,0.2,0.2,0.4,0.3,0.6c0.1,0.2,0.3,0.3,0.5,0.4c0.2,0.1,0.4,0.1,0.7,0.1c0.3,0,0.5-0.1,0.7-0.2c0.2-0.1,0.4-0.3,0.5-0.5
		s0.3-0.5,0.4-0.8c0.1-0.3,0.2-0.6,0.3-0.9c0.1-0.5,0.3-0.9,0.5-1.4c0.2-0.4,0.5-0.8,0.7-1.1s0.6-0.6,1-0.8c0.4-0.2,0.8-0.3,1.3-0.3
		c0.5,0,1,0.1,1.3,0.3c0.4,0.2,0.7,0.5,1,0.9s0.5,0.8,0.6,1.2c0.1,0.5,0.2,1,0.2,1.5c0,0.3,0,0.7-0.1,1s-0.2,0.7-0.3,1
		c-0.1,0.3-0.3,0.6-0.5,0.9c-0.2,0.3-0.4,0.5-0.7,0.7c-0.3,0.2-0.6,0.4-0.9,0.5c-0.3,0.1-0.7,0.2-1.1,0.2v-1.9
		c0.3,0,0.6-0.1,0.9-0.2s0.5-0.3,0.6-0.5c0.2-0.2,0.3-0.5,0.4-0.7c0.1-0.3,0.1-0.6,0.1-0.9c0-0.3,0-0.5-0.1-0.8
		c-0.1-0.2-0.2-0.5-0.3-0.6c-0.1-0.2-0.3-0.3-0.5-0.4C1162.1,207.9,1161.9,207.8,1161.7,207.8z"/>
	<path d="M1161.9,198.6v3.6l2.6,0.8v1.9l-11.4-3.7v-1.6l11.4-3.6v1.9L1161.9,198.6z M1160.3,201.7v-2.6l-4.5,1.3L1160.3,201.7z"/>
	<path d="M1154.8,186.5v3.5h9.8v1.9h-9.8v3.5h-1.5v-8.8H1154.8z"/>
	<path d="M1159.5,178.3v4.7h3.6v-5.5h1.5v7.4h-11.4v-7.3h1.5v5.4h3.2v-4.7H1159.5z"/>
</g>
<circle class="st4" cx="1159.1" cy="271.1" r="7.4"/>
<g class="st3">
	<path d="M1195.8,235.9v4.7h3.6v-5.5h1.5v7.4h-11.4v-7.3h1.5v5.4h3.2v-4.7H1195.8z"/>
	<path d="M1197.9,227c-0.3,0-0.5,0.1-0.7,0.2c-0.2,0.1-0.4,0.3-0.5,0.5c-0.2,0.2-0.3,0.5-0.4,0.7c-0.1,0.3-0.2,0.6-0.3,0.9
		c-0.1,0.4-0.3,0.9-0.5,1.3c-0.2,0.4-0.4,0.8-0.7,1.2c-0.3,0.3-0.6,0.6-1,0.8s-0.8,0.3-1.3,0.3s-0.9-0.1-1.3-0.3s-0.7-0.5-1-0.8
		c-0.3-0.4-0.5-0.8-0.6-1.2s-0.2-1-0.2-1.5c0-0.5,0.1-1.1,0.3-1.5s0.4-0.9,0.7-1.2c0.3-0.4,0.7-0.6,1.1-0.8c0.4-0.2,0.9-0.3,1.4-0.3
		v1.9c-0.3,0-0.5,0.1-0.8,0.2c-0.2,0.1-0.4,0.2-0.6,0.4c-0.2,0.2-0.3,0.4-0.4,0.6s-0.1,0.5-0.1,0.9c0,0.3,0,0.5,0.1,0.8
		c0.1,0.2,0.2,0.4,0.3,0.6c0.1,0.2,0.3,0.3,0.5,0.4c0.2,0.1,0.4,0.1,0.7,0.1c0.3,0,0.5-0.1,0.7-0.2c0.2-0.1,0.4-0.3,0.5-0.5
		s0.3-0.5,0.4-0.8c0.1-0.3,0.2-0.6,0.3-0.9c0.1-0.5,0.3-0.9,0.5-1.4c0.2-0.4,0.5-0.8,0.7-1.1s0.6-0.6,1-0.8c0.4-0.2,0.8-0.3,1.3-0.3
		c0.5,0,1,0.1,1.3,0.3c0.4,0.2,0.7,0.5,1,0.9s0.5,0.8,0.6,1.2c0.1,0.5,0.2,1,0.2,1.5c0,0.3,0,0.7-0.1,1s-0.2,0.7-0.3,1
		c-0.1,0.3-0.3,0.6-0.5,0.9c-0.2,0.3-0.4,0.5-0.7,0.7c-0.3,0.2-0.6,0.4-0.9,0.5c-0.3,0.1-0.7,0.2-1.1,0.2v-1.9
		c0.3,0,0.6-0.1,0.9-0.2s0.5-0.3,0.6-0.5c0.2-0.2,0.3-0.5,0.4-0.7c0.1-0.3,0.1-0.6,0.1-0.9c0-0.3,0-0.5-0.1-0.8
		c-0.1-0.2-0.2-0.5-0.3-0.6c-0.1-0.2-0.3-0.3-0.5-0.4C1198.4,227.1,1198.2,227,1197.9,227z"/>
	<path d="M1197.4,215.7c0.5,0.1,1,0.2,1.5,0.4c0.5,0.2,0.8,0.5,1.2,0.8s0.6,0.7,0.7,1.2c0.2,0.5,0.3,1,0.3,1.6
		c0,0.7-0.1,1.3-0.4,1.8s-0.6,0.9-1.1,1.3s-1,0.6-1.6,0.8s-1.3,0.3-2,0.3h-1.6c-0.7,0-1.3-0.1-2-0.3c-0.6-0.2-1.2-0.4-1.6-0.8
		c-0.5-0.3-0.8-0.8-1.1-1.3s-0.4-1.1-0.4-1.8c0-0.6,0.1-1.1,0.3-1.6s0.4-0.9,0.8-1.2c0.3-0.3,0.7-0.6,1.2-0.8c0.5-0.2,1-0.3,1.5-0.4
		v1.9c-0.3,0-0.6,0.1-0.9,0.2c-0.3,0.1-0.5,0.2-0.7,0.4c-0.2,0.2-0.3,0.4-0.4,0.6c-0.1,0.3-0.2,0.6-0.2,0.9c0,0.4,0.1,0.8,0.3,1.1
		c0.2,0.3,0.5,0.5,0.8,0.7c0.3,0.2,0.7,0.3,1.1,0.4c0.4,0.1,0.9,0.1,1.3,0.1h1.6c0.5,0,0.9,0,1.4-0.1c0.4-0.1,0.8-0.2,1.1-0.4
		s0.6-0.4,0.8-0.7c0.2-0.3,0.3-0.6,0.3-1.1c0-0.7-0.2-1.2-0.6-1.5s-0.9-0.5-1.6-0.6V215.7z"/>
	<path d="M1198.2,208.2v3.6l2.6,0.8v1.9l-11.4-3.7v-1.6l11.4-3.6v1.9L1198.2,208.2z M1196.6,211.3v-2.6l-4.5,1.3L1196.6,211.3z"/>
	<path d="M1199.3,202.1v-5.4h1.5v7.3h-11.4v-1.9H1199.3z"/>
	<path d="M1198.2,189v3.6l2.6,0.8v1.9l-11.4-3.7V190l11.4-3.6v1.9L1198.2,189z M1196.6,192.1v-2.6l-4.5,1.3L1196.6,192.1z"/>
	<path d="M1191,176.9v3.5h9.8v1.9h-9.8v3.5h-1.5v-8.8H1191z"/>
	<path d="M1195.8,168.7v4.7h3.6v-5.5h1.5v7.4h-11.4v-7.3h1.5v5.4h3.2v-4.7H1195.8z"/>
</g>
<circle class="st4" cx="1195.4" cy="271.1" r="7.4"/>
<g class="st3">
	<path d="M1195.9,346.5c0.7,0,1.3,0.1,1.9,0.3s1.2,0.4,1.6,0.8c0.5,0.3,0.8,0.8,1.1,1.3c0.3,0.5,0.4,1.1,0.4,1.8
		c0,0.7-0.1,1.3-0.4,1.8c-0.3,0.5-0.7,0.9-1.1,1.3s-1,0.6-1.6,0.8c-0.6,0.2-1.3,0.3-1.9,0.3h-1.5c-0.4,0-0.9,0-1.3-0.1
		c-0.4-0.1-0.8-0.2-1.2-0.3s-0.7-0.3-1-0.6c-0.3-0.2-0.6-0.5-0.8-0.8c-0.2-0.3-0.4-0.6-0.5-1c-0.1-0.4-0.2-0.8-0.2-1.2
		c0-0.7,0.1-1.3,0.4-1.8c0.3-0.5,0.7-0.9,1.1-1.3s1-0.6,1.6-0.8s1.3-0.3,1.9-0.3H1195.9z M1194.4,348.4c-0.4,0-0.9,0-1.3,0.1
		c-0.4,0.1-0.8,0.2-1.1,0.4s-0.6,0.4-0.8,0.7c-0.2,0.3-0.3,0.6-0.3,1.1c0,0.4,0.1,0.8,0.3,1.1c0.2,0.3,0.5,0.5,0.8,0.7
		s0.7,0.3,1.1,0.3c0.4,0.1,0.8,0.1,1.3,0.1h1.5c0.4,0,0.9,0,1.3-0.1c0.4-0.1,0.8-0.2,1.1-0.3s0.6-0.4,0.8-0.7
		c0.2-0.3,0.3-0.6,0.3-1.1c0-0.4-0.1-0.8-0.3-1.1c-0.2-0.3-0.5-0.5-0.8-0.7s-0.7-0.3-1.1-0.4s-0.8-0.1-1.3-0.1H1194.4z"/>
	<path d="M1196,337.8v4.8h4.8v1.9h-11.4v-7.4h1.5v5.5h3.4v-4.8H1196z"/>
	<path d="M1196,328.2v4.8h4.8v1.9h-11.4v-7.4h1.5v5.5h3.4v-4.8H1196z"/>
</g>
<circle class="st4" cx="1195.4" cy="382.8" r="7.4"/>
<g class="st3">
	<path d="M1233.2,236.9l-7.5-0.8v-1.8l11.4,1.5v1.8l-7.6,1.2l7.6,1.2v1.8l-11.4,1.5v-1.8l7.4-0.8l-7.4-1.2v-1.5L1233.2,236.9z"/>
	<path d="M1234.5,227.4v3.6l2.6,0.8v1.9l-11.4-3.7v-1.6l11.4-3.6v1.9L1234.5,227.4z M1232.9,230.5v-2.6l-4.5,1.3L1232.9,230.5z"/>
	<path d="M1234.3,219.7l-8.5-2.4v-2l11.4,3.5v1.8l-11.4,3.5v-2L1234.3,219.7z"/>
	<path d="M1232,207.1v4.7h3.6v-5.5h1.5v7.4h-11.4v-7.3h1.5v5.4h3.2v-4.7H1232z"/>
</g>
<circle class="st4" cx="1231.6" cy="271.1" r="7.4"/>
<g class="st3">
	<path d="M1269,238.7v1.9h4.4v1.9h-11.4v-3.6c0-0.6,0.1-1.1,0.2-1.6s0.4-0.9,0.6-1.3s0.6-0.6,1.1-0.8c0.4-0.2,0.9-0.3,1.5-0.3
		c0.4,0,0.7,0.1,1.1,0.2s0.6,0.2,0.9,0.4c0.3,0.2,0.5,0.4,0.7,0.7c0.2,0.3,0.4,0.5,0.5,0.8l4.8-2.4h0.1v2L1269,238.7z M1267.5,240.6
		v-1.7c0-0.3,0-0.6-0.1-0.9c-0.1-0.3-0.2-0.5-0.4-0.7c-0.2-0.2-0.4-0.3-0.6-0.4c-0.2-0.1-0.5-0.2-0.8-0.2c-0.3,0-0.6,0-0.8,0.1
		c-0.2,0.1-0.5,0.2-0.6,0.4c-0.2,0.2-0.3,0.4-0.4,0.7s-0.1,0.6-0.1,0.9v1.7H1267.5z"/>
	<path d="M1267.5,229.3l-5.4-2.4v-2.1l7.3,3.5l4.1,0v1.8l-4.1,0l-7.2,3.5v-2.1L1267.5,229.3z"/>
	<path d="M1263.6,215.3v3.5h9.8v1.9h-9.8v3.5h-1.5v-8.8H1263.6z"/>
	<path d="M1273.4,206.4v1.8h-5.1v3.9h5.1v1.8h-11.4v-1.8h4.8v-3.9h-4.8v-1.8H1273.4z"/>
	<path d="M1262.1,201.9l4.9-1.4l-4.9-1.6v-2.3h11.4v1.8h-3.9l-5-0.1l5.5,1.8v1l-5.3,1.6l4.8-0.1h3.9v1.8h-11.4V201.9z"/>
</g>
<circle class="st4" cx="1267.9" cy="271.1" r="7.4"/>
<polygon class="st0" points="916.7,116.5 916.7,80.4 885.5,62.4 854.3,80.4 854.3,116.5 885.5,134.5 "/>
<g>
	<g class="st3">
		<path d="M531.6,520.5h2.6v0.7h-2.6v2.8h-0.7v-2.8h-2.5v-0.7h2.5v-2.7h0.7V520.5z"/>
		<path d="M540.6,521.3h-4.3v-0.6h4.3V521.3z"/>
	</g>
</g>
<rect x="527.8" y="527.9" class="st4" width="14" height="7.4"/>
<g>
	<g class="st3">
		<path d="M470,520.5h2.6v0.7H470v2.8h-0.7v-2.8h-2.5v-0.7h2.5v-2.7h0.7V520.5z"/>
		<path d="M478.9,521.3h-4.3v-0.6h4.3V521.3z"/>
	</g>
</g>
<rect x="466.2" y="527.8" class="st4" width="14" height="7.4"/>
<g>
	<g class="st3">
		<path d="M408.4,520.5h2.6v0.7h-2.6v2.8h-0.7v-2.8h-2.5v-0.7h2.5v-2.7h0.7V520.5z"/>
		<path d="M417.3,521.3H413v-0.6h4.3V521.3z"/>
	</g>
</g>
<rect x="404.5" y="527.8" class="st4" width="14" height="7.4"/>
<g>
	<g class="st3">
		<path d="M210.6,520.5h2.6v0.7h-2.6v2.8h-0.7v-2.8h-2.5v-0.7h2.5v-2.7h0.7V520.5z"/>
		<path d="M219.5,521.3h-4.3v-0.6h4.3V521.3z"/>
	</g>
</g>
<rect x="206.8" y="527.8" class="st4" width="14" height="7.4"/>
<g>
	<g class="st3">
		<path d="M148.9,520.5h2.6v0.7h-2.6v2.8h-0.7v-2.8h-2.5v-0.7h2.5v-2.7h0.7V520.5z"/>
		<path d="M157.9,521.3h-4.3v-0.6h4.3V521.3z"/>
	</g>
</g>
<rect x="145.1" y="527.8" class="st4" width="14" height="7.4"/>
<g>
	<g class="st3">
		<path d="M87.3,520.5h2.6v0.7h-2.6v2.8h-0.7v-2.8h-2.5v-0.7h2.5v-2.7h0.7V520.5z"/>
		<path d="M96.2,521.3h-4.3v-0.6h4.3V521.3z"/>
	</g>
</g>
<rect x="83.5" y="527.8" class="st4" width="14" height="7.4"/>
</svg>
