<?xml version="1.0" encoding="utf-8"?>
<!-- Generator: Adobe Illustrator 26.2.1, SVG Export Plug-In . SVG Version: 6.00 Build 0)  -->
<svg version="1.1"
	 id="Layer_1" xmlns:cc="http://creativecommons.org/ns#" xmlns:dc="http://purl.org/dc/elements/1.1/" xmlns:inkscape="http://www.inkscape.org/namespaces/inkscape" xmlns:rdf="http://www.w3.org/1999/02/22-rdf-syntax-ns#" xmlns:svg="http://www.w3.org/2000/svg"
	 xmlns="http://www.w3.org/2000/svg" xmlns:xlink="http://www.w3.org/1999/xlink" x="0px" y="0px" viewBox="0 0 340.4 298.5"
	 style="enable-background:new 0 0 340.4 298.5;" xml:space="preserve">
<style type="text/css">
	.st0{fill:none;stroke:#000000;stroke-width:0.5669;stroke-linecap:round;stroke-linejoin:round;stroke-miterlimit:11.3386;}
	.st1{font-family:'Helvetica';}
	.st2{font-size:28.3465px;}
	.st3{fill:none;stroke:#000000;stroke-width:0.5669;stroke-miterlimit:10;}
</style>
<g id="p-0">
	<path class="st0" d="M28.6,293.5h283.5v-28.3H28.6V293.5z"/>
	<text transform="matrix(1 0 0 1 123.1016 265.1273)" class="st1 st2">100mm</text>
</g>
<g id="p-1">
	<path class="st0" d="M37.1,237h22.7c0.2,0,0.3-0.1,0.3-0.3v-8.2c0-0.3-0.3,0,0,0h16.4c0.3,0,0-0.3,0,0v8.2c0,0.2,0.1,0.3,0.3,0.3
		h17c0.2,0,0.3-0.1,0.3-0.3v-8.2c0-0.3-0.3,0,0,0h16.4c0.3,0,0-0.3,0,0v8.2c0,0.2,0.1,0.3,0.3,0.3h22.7h8.5c0.2,0,0.3-0.1,0.3-0.3
		v-8.5v-12.8v-12.8v-8.5c0-0.2-0.1-0.3-0.3-0.3h-8.5h-22.7c-0.2,0-0.3,0.1-0.3,0.3v8.2c0,0.3,0.3,0,0,0H94.1c-0.3,0,0,0.3,0,0v-8.2
		c0-0.2-0.1-0.3-0.3-0.3h-17c-0.2,0-0.3,0.1-0.3,0.3v8.2c0,0.3,0.3,0,0,0H60.1c-0.3,0,0,0.3,0,0v-8.2c0-0.2-0.1-0.3-0.3-0.3H37.1
		h-8.5c-0.2,0-0.3,0.1-0.3,0.3v8.5v12.8v12.8v8.5c0,0.2,0.1,0.3,0.3,0.3H37.1"/>
</g>
<g id="p-2">
	<path class="st0" d="M155.3,237H178c0.2,0,0.3-0.1,0.3-0.3v-8.2c0-0.3-0.3,0,0,0h16.4c0.3,0,0-0.3,0,0v8.2c0,0.2,0.1,0.3,0.3,0.3
		h17c0.2,0,0.3-0.1,0.3-0.3v-8.2c0-0.3-0.3,0,0,0h16.4c0.3,0,0-0.3,0,0v8.2c0,0.2,0.1,0.3,0.3,0.3h22.7c0.2,0,0.3-0.1,0.3-0.3v-8.5
		v-12.8v-12.8v-8.5c0-0.2-0.1-0.3-0.3-0.3H229c-0.2,0-0.3,0.1-0.3,0.3v8.2c0,0.3,0.3,0,0,0h-16.4c-0.3,0,0,0.3,0,0v-8.2
		c0-0.2-0.1-0.3-0.3-0.3h-17c-0.2,0-0.3,0.1-0.3,0.3v8.2c0,0.3,0.3,0,0,0h-16.4c-0.3,0,0,0.3,0,0v-8.2c0-0.2-0.1-0.3-0.3-0.3h-22.7
		c-0.2,0-0.3,0.1-0.3,0.3v8.5v12.8v12.8v8.5C155.1,236.8,155.2,237,155.3,237"/>
</g>
<g id="p-3">
	<path class="st0" d="M155.3,189.6H178c0.2,0,0.3-0.1,0.3-0.3v-8.2c0-0.3-0.3,0,0,0h16.4c0.3,0,0-0.3,0,0v8.2c0,0.2,0.1,0.3,0.3,0.3
		h17c0.2,0,0.3-0.1,0.3-0.3v-8.2c0-0.3-0.3,0,0,0h16.4c0.3,0,0-0.3,0,0v8.2c0,0.2,0.1,0.3,0.3,0.3h22.7c0.2,0,0.3-0.1,0.3-0.3v-8.5
		V168v-12.8v-8.5c0-0.2-0.1-0.3-0.3-0.3H229c-0.2,0-0.3,0.1-0.3,0.3v8.2c0,0.3,0.3,0,0,0h-16.4c-0.3,0,0,0.3,0,0v-8.2
		c0-0.2-0.1-0.3-0.3-0.3h-17c-0.2,0-0.3,0.1-0.3,0.3v8.2c0,0.3,0.3,0,0,0h-16.4c-0.3,0,0,0.3,0,0v-8.2c0-0.2-0.1-0.3-0.3-0.3h-22.7
		c-0.2,0-0.3,0.1-0.3,0.3v8.5V168v12.8v8.5C155.1,189.5,155.2,189.6,155.3,189.6"/>
</g>
<g id="p-4">
	<path class="st0" d="M37.1,189.6h22.7c0.2,0,0.3-0.1,0.3-0.3v-8.2c0-0.3-0.3,0,0,0h16.4c0.3,0,0-0.3,0,0v8.2c0,0.2,0.1,0.3,0.3,0.3
		h17c0.2,0,0.3-0.1,0.3-0.3v-8.2c0-0.3-0.3,0,0,0h16.4c0.3,0,0-0.3,0,0v8.2c0,0.2,0.1,0.3,0.3,0.3h22.7h8.5c0.2,0,0.3-0.1,0.3-0.3
		v-8.5V168v-12.8v-8.5c0-0.2-0.1-0.3-0.3-0.3h-8.5h-22.7c-0.2,0-0.3,0.1-0.3,0.3v8.2c0,0.3,0.3,0,0,0H94.1c-0.3,0,0,0.3,0,0v-8.2
		c0-0.2-0.1-0.3-0.3-0.3h-17c-0.2,0-0.3,0.1-0.3,0.3v8.2c0,0.3,0.3,0,0,0H60.1c-0.3,0,0,0.3,0,0v-8.2c0-0.2-0.1-0.3-0.3-0.3H37.1
		h-8.5c-0.2,0-0.3,0.1-0.3,0.3v8.5V168v12.8v8.5c0,0.2,0.1,0.3,0.3,0.3H37.1"/>
</g>
<g id="p-5">
	<path class="st0" d="M37.1,133.8h22.4c0.3,0,0-0.3,0,0v8.2c0,0.2,0.1,0.3,0.3,0.3h17c0.2,0,0.3-0.1,0.3-0.3v-8.2c0-0.3-0.3,0,0,0
		h16.4c0.3,0,0-0.3,0,0v8.2c0,0.2,0.1,0.3,0.3,0.3h17c0.2,0,0.3-0.1,0.3-0.3v-8.2c0-0.3-0.3,0,0,0h22.4c0.2,0,0.3-0.1,0.3-0.3v-22.4
		c0-0.3-0.3,0,0,0h8.2c0.2,0,0.3-0.1,0.3-0.3v-17c0-0.2-0.1-0.3-0.3-0.3h-8.2c-0.3,0,0,0.3,0,0V77.1c0-0.3-0.3,0,0,0h8.2
		c0.2,0,0.3-0.1,0.3-0.3v-17c0-0.2-0.1-0.3-0.3-0.3h-8.2c-0.3,0,0,0.3,0,0V37.1c0-0.2-0.1-0.3-0.3-0.3h-22.4c-0.3,0,0,0.3,0,0v-8.2
		c0-0.2-0.1-0.3-0.3-0.3h-17c-0.2,0-0.3,0.1-0.3,0.3v8.2c0,0.3,0.3,0,0,0H77.1c-0.3,0,0,0.3,0,0v-8.2c0-0.2-0.1-0.3-0.3-0.3h-17
		c-0.2,0-0.3,0.1-0.3,0.3v8.2c0,0.3,0.3,0,0,0H37.1c-0.2,0-0.3,0.1-0.3,0.3v22.4c0,0.3,0.3,0,0,0h-8.2c-0.2,0-0.3,0.1-0.3,0.3v17
		c0,0.2,0.1,0.3,0.3,0.3h8.2c0.3,0,0-0.3,0,0v16.4c0,0.3,0.3,0,0,0h-8.2c-0.2,0-0.3,0.1-0.3,0.3v17c0,0.2,0.1,0.3,0.3,0.3h8.2
		c0.3,0,0-0.3,0,0v22.4C36.9,133.7,37,133.8,37.1,133.8"/>
</g>
<circle class="st3" cx="203.5" cy="168.6" r="7.7"/>
<path class="st0" d="M322.2,24.8v105.8c0,2.3-1.9,4.2-4.2,4.2h-25.3v-31.6c0-0.2-0.1-0.3-0.3-0.3h-8.2v23c0,0.2-0.1,0.3-0.3,0.3
	h-22.4c0-0.3-0.3,0,0,0v8.2c0,0.2-0.1,0.3-0.3,0.3h-17c-0.2,0-0.3-0.1-0.3-0.3v-8.2c0.3,0,0-0.3,0,0h-16.4c0-0.3-0.3,0,0,0v8.2
	c0,0.2-0.1,0.3-0.3,0.3h-17c-0.2,0-0.3-0.1-0.3-0.3v-8.2c0.3,0,0-0.3,0,0h-22.4c-0.1-0.1-0.2-0.2-0.3-0.3v-22.9h-8.2
	c-0.2,0-0.3,0.1-0.3,0.3v31.4h0v0.1h-25.3c-2.3,0-4.2-1.9-4.2-4.2V24.8c0-2.3,1.9-4.2,4.2-4.2h25.3v0.1h0v31.4
	c0,0.2,0.1,0.3,0.3,0.3h8.2v-23c0-0.2,0.2-0.3,0.3-0.3H210c0,0.3,0.3,0,0,0v-8.2c0-0.1,0-0.2,0.1-0.2c0.1-0.1,0.1-0.1,0.2-0.1h17
	c0.2,0,0.3,0.1,0.3,0.3v8.2c-0.3,0,0,0.3,0,0H244c0,0.3,0.3,0,0,0v-8.2c0-0.2,0.1-0.3,0.3-0.3h17c0.2,0,0.3,0.1,0.3,0.3v8.2
	c-0.3,0,0,0.3,0,0H284c0.2,0,0.3,0.1,0.3,0.3v23h8.2c0.2,0,0.3-0.1,0.3-0.3V20.6h25.3C320.4,20.6,322.2,22.5,322.2,24.8z"/>
<rect x="159.4" y="41.8" class="st0" width="9.3" height="71.8"/>
<rect x="302.9" y="41.8" class="st0" width="9.3" height="71.8"/>
</svg>
